<mxfile host="app.diagrams.net" modified="2024-01-18T09:36:33.217Z" agent="Mozilla/5.0 (Windows NT 10.0; Win64; x64; rv:121.0) Gecko/20100101 Firefox/121.0" etag="NjDm63mZ1tuYZV2hRS_6" version="22.1.21" type="google">
  <diagram name="Page-1" id="IXaNWx7M7U6oU7brukCO">
    <mxGraphModel grid="1" page="1" gridSize="10" guides="1" tooltips="1" connect="1" arrows="1" fold="1" pageScale="1" pageWidth="850" pageHeight="1100" math="0" shadow="0">
      <root>
        <mxCell id="0" />
        <mxCell id="1" parent="0" />
        <mxCell id="Hjs_BTQ6o8FuL1FfB40C-4" value="" style="group" vertex="1" connectable="0" parent="1">
          <mxGeometry x="190" y="140" width="60" height="90" as="geometry" />
        </mxCell>
        <mxCell id="Hjs_BTQ6o8FuL1FfB40C-1" value="PC" style="rounded=0;whiteSpace=wrap;html=1;" vertex="1" parent="Hjs_BTQ6o8FuL1FfB40C-4">
          <mxGeometry width="60" height="90" as="geometry" />
        </mxCell>
        <mxCell id="Hjs_BTQ6o8FuL1FfB40C-2" value="" style="triangle;whiteSpace=wrap;html=1;rotation=-90;" vertex="1" parent="Hjs_BTQ6o8FuL1FfB40C-4">
          <mxGeometry x="20" y="60" width="20" height="40" as="geometry" />
        </mxCell>
        <mxCell id="Hjs_BTQ6o8FuL1FfB40C-10" value="" style="verticalLabelPosition=middle;verticalAlign=middle;html=1;shape=trapezoid;perimeter=trapezoidPerimeter;whiteSpace=wrap;size=0.23;arcSize=10;flipV=1;labelPosition=center;align=center;rotation=-90;" vertex="1" parent="1">
          <mxGeometry x="120" y="160" width="40" height="25" as="geometry" />
        </mxCell>
        <mxCell id="Hjs_BTQ6o8FuL1FfB40C-11" style="edgeStyle=orthogonalEdgeStyle;rounded=0;orthogonalLoop=1;jettySize=auto;html=1;entryX=-0.018;entryY=0.36;entryDx=0;entryDy=0;entryPerimeter=0;" edge="1" parent="1" source="Hjs_BTQ6o8FuL1FfB40C-10" target="Hjs_BTQ6o8FuL1FfB40C-1">
          <mxGeometry relative="1" as="geometry" />
        </mxCell>
        <mxCell id="Hjs_BTQ6o8FuL1FfB40C-13" style="edgeStyle=orthogonalEdgeStyle;rounded=0;orthogonalLoop=1;jettySize=auto;html=1;entryX=0.323;entryY=1.001;entryDx=0;entryDy=0;entryPerimeter=0;" edge="1" parent="1" source="Hjs_BTQ6o8FuL1FfB40C-1" target="Hjs_BTQ6o8FuL1FfB40C-12">
          <mxGeometry relative="1" as="geometry" />
        </mxCell>
        <mxCell id="Hjs_BTQ6o8FuL1FfB40C-26" value="" style="group" vertex="1" connectable="0" parent="1">
          <mxGeometry x="291" y="58" width="25" height="40" as="geometry" />
        </mxCell>
        <mxCell id="Hjs_BTQ6o8FuL1FfB40C-12" value="+" style="verticalLabelPosition=middle;verticalAlign=middle;html=1;shape=trapezoid;perimeter=trapezoidPerimeter;whiteSpace=wrap;size=0.23;arcSize=10;flipV=1;labelPosition=center;align=center;rotation=-90;" vertex="1" parent="Hjs_BTQ6o8FuL1FfB40C-26">
          <mxGeometry x="-7.499999999999998" y="7.5" width="40" height="25" as="geometry" />
        </mxCell>
        <mxCell id="Hjs_BTQ6o8FuL1FfB40C-14" value="" style="triangle;whiteSpace=wrap;html=1;strokeColor=#ffffff;" vertex="1" parent="Hjs_BTQ6o8FuL1FfB40C-26">
          <mxGeometry x="1.7763568394002505e-15" y="13.75" width="7" height="12.5" as="geometry" />
        </mxCell>
        <mxCell id="Hjs_BTQ6o8FuL1FfB40C-23" value="" style="endArrow=none;html=1;rounded=0;" edge="1" parent="Hjs_BTQ6o8FuL1FfB40C-26">
          <mxGeometry width="50" height="50" relative="1" as="geometry">
            <mxPoint x="8.000000000000002" y="20" as="sourcePoint" />
            <mxPoint x="1.7763568394002505e-15" y="12" as="targetPoint" />
          </mxGeometry>
        </mxCell>
        <mxCell id="Hjs_BTQ6o8FuL1FfB40C-21" value="" style="endArrow=none;html=1;rounded=0;" edge="1" parent="Hjs_BTQ6o8FuL1FfB40C-26">
          <mxGeometry width="50" height="50" relative="1" as="geometry">
            <mxPoint x="1.7763568394002505e-15" y="27" as="sourcePoint" />
            <mxPoint x="8.000000000000002" y="19" as="targetPoint" />
          </mxGeometry>
        </mxCell>
        <mxCell id="Hjs_BTQ6o8FuL1FfB40C-27" value="" style="endArrow=classic;html=1;rounded=0;entryX=0.75;entryY=0;entryDx=0;entryDy=0;" edge="1" parent="1" target="Hjs_BTQ6o8FuL1FfB40C-12">
          <mxGeometry width="50" height="50" relative="1" as="geometry">
            <mxPoint x="260" y="68" as="sourcePoint" />
            <mxPoint x="320" y="100" as="targetPoint" />
          </mxGeometry>
        </mxCell>
        <mxCell id="Hjs_BTQ6o8FuL1FfB40C-28" value="4" style="text;html=1;align=center;verticalAlign=middle;resizable=0;points=[];autosize=1;strokeColor=none;fillColor=none;" vertex="1" parent="1">
          <mxGeometry x="241" y="50" width="30" height="30" as="geometry" />
        </mxCell>
        <mxCell id="Hjs_BTQ6o8FuL1FfB40C-34" style="edgeStyle=orthogonalEdgeStyle;rounded=0;orthogonalLoop=1;jettySize=auto;html=1;jumpStyle=none;entryX=0.798;entryY=0.998;entryDx=0;entryDy=0;entryPerimeter=0;" edge="1" parent="1">
          <mxGeometry relative="1" as="geometry">
            <mxPoint x="127.54999999999995" y="159.98999999999992" as="targetPoint" />
            <mxPoint x="315" y="77.91" as="sourcePoint" />
            <Array as="points">
              <mxPoint x="315" y="79.41" />
              <mxPoint x="370" y="79.41" />
              <mxPoint x="370" y="47.41" />
              <mxPoint x="100" y="47.41" />
              <mxPoint x="100" y="160.41" />
            </Array>
          </mxGeometry>
        </mxCell>
        <mxCell id="wosFcNRlOpJEMxotf_Ig-81" value="pc" style="edgeLabel;html=1;align=center;verticalAlign=middle;resizable=0;points=[];" connectable="0" vertex="1" parent="Hjs_BTQ6o8FuL1FfB40C-34">
          <mxGeometry x="0.8973" y="1" relative="1" as="geometry">
            <mxPoint x="6" as="offset" />
          </mxGeometry>
        </mxCell>
        <mxCell id="Hjs_BTQ6o8FuL1FfB40C-38" value="&lt;div&gt;Instr.&lt;/div&gt;&lt;div&gt;Vec&lt;br&gt;&lt;/div&gt;" style="whiteSpace=wrap;html=1;aspect=fixed;" vertex="1" parent="1">
          <mxGeometry x="330" y="110" width="130" height="130" as="geometry" />
        </mxCell>
        <mxCell id="Hjs_BTQ6o8FuL1FfB40C-39" style="edgeStyle=orthogonalEdgeStyle;rounded=0;orthogonalLoop=1;jettySize=auto;html=1;entryX=-0.008;entryY=0.582;entryDx=0;entryDy=0;entryPerimeter=0;" edge="1" parent="1" source="Hjs_BTQ6o8FuL1FfB40C-1" target="Hjs_BTQ6o8FuL1FfB40C-38">
          <mxGeometry relative="1" as="geometry">
            <mxPoint x="420" y="185" as="targetPoint" />
          </mxGeometry>
        </mxCell>
        <mxCell id="Hjs_BTQ6o8FuL1FfB40C-40" value="addr" style="edgeLabel;html=1;align=center;verticalAlign=middle;resizable=0;points=[];" vertex="1" connectable="0" parent="Hjs_BTQ6o8FuL1FfB40C-39">
          <mxGeometry x="0.1223" relative="1" as="geometry">
            <mxPoint y="-1" as="offset" />
          </mxGeometry>
        </mxCell>
        <mxCell id="Hjs_BTQ6o8FuL1FfB40C-45" value="IFID" style="rounded=0;whiteSpace=wrap;html=1;" vertex="1" parent="1">
          <mxGeometry x="520" y="-200" width="60" height="520" as="geometry" />
        </mxCell>
        <mxCell id="Hjs_BTQ6o8FuL1FfB40C-46" value="" style="triangle;whiteSpace=wrap;html=1;rotation=-90;" vertex="1" parent="1">
          <mxGeometry x="540" y="290" width="20" height="40" as="geometry" />
        </mxCell>
        <mxCell id="Hjs_BTQ6o8FuL1FfB40C-47" value="" style="endArrow=classic;html=1;rounded=0;edgeStyle=orthogonalEdgeStyle;" edge="1" parent="1">
          <mxGeometry width="50" height="50" relative="1" as="geometry">
            <mxPoint x="270" y="100" as="sourcePoint" />
            <mxPoint x="520" as="targetPoint" />
            <Array as="points">
              <mxPoint x="270" y="101" />
              <mxPoint x="491" y="101" />
              <mxPoint x="491" />
            </Array>
          </mxGeometry>
        </mxCell>
        <mxCell id="Hjs_BTQ6o8FuL1FfB40C-56" value="&lt;div&gt;pc&lt;/div&gt;" style="edgeLabel;html=1;align=center;verticalAlign=middle;resizable=0;points=[];" vertex="1" connectable="0" parent="Hjs_BTQ6o8FuL1FfB40C-47">
          <mxGeometry x="0.7154" y="1" relative="1" as="geometry">
            <mxPoint x="10" y="-21" as="offset" />
          </mxGeometry>
        </mxCell>
        <mxCell id="Hjs_BTQ6o8FuL1FfB40C-49" style="edgeStyle=orthogonalEdgeStyle;rounded=0;orthogonalLoop=1;jettySize=auto;html=1;entryX=-0.012;entryY=0.676;entryDx=0;entryDy=0;entryPerimeter=0;" edge="1" parent="1" source="Hjs_BTQ6o8FuL1FfB40C-38" target="Hjs_BTQ6o8FuL1FfB40C-45">
          <mxGeometry relative="1" as="geometry" />
        </mxCell>
        <mxCell id="Hjs_BTQ6o8FuL1FfB40C-50" value="Ins" style="edgeLabel;html=1;align=center;verticalAlign=middle;resizable=0;points=[];" vertex="1" connectable="0" parent="Hjs_BTQ6o8FuL1FfB40C-49">
          <mxGeometry x="0.3107" y="1" relative="1" as="geometry">
            <mxPoint as="offset" />
          </mxGeometry>
        </mxCell>
        <mxCell id="wosFcNRlOpJEMxotf_Ig-2" style="edgeStyle=orthogonalEdgeStyle;rounded=0;orthogonalLoop=1;jettySize=auto;html=1;entryX=0.001;entryY=0.595;entryDx=0;entryDy=0;entryPerimeter=0;" edge="1" parent="1" target="Hjs_BTQ6o8FuL1FfB40C-53">
          <mxGeometry relative="1" as="geometry">
            <mxPoint x="770" y="205.02857142857147" as="sourcePoint" />
            <mxPoint x="890" y="71" as="targetPoint" />
            <Array as="points">
              <mxPoint x="770" y="200" />
              <mxPoint x="840" y="200" />
              <mxPoint x="840" y="120" />
              <mxPoint x="883" y="120" />
              <mxPoint x="883" y="121" />
            </Array>
          </mxGeometry>
        </mxCell>
        <mxCell id="wosFcNRlOpJEMxotf_Ig-5" value="rs1" style="edgeLabel;html=1;align=center;verticalAlign=middle;resizable=0;points=[];" connectable="0" vertex="1" parent="wosFcNRlOpJEMxotf_Ig-2">
          <mxGeometry x="0.5066" y="1" relative="1" as="geometry">
            <mxPoint x="20" y="1" as="offset" />
          </mxGeometry>
        </mxCell>
        <mxCell id="wosFcNRlOpJEMxotf_Ig-7" style="edgeStyle=orthogonalEdgeStyle;rounded=0;orthogonalLoop=1;jettySize=auto;html=1;entryX=0;entryY=0.5;entryDx=0;entryDy=0;" edge="1" parent="1" source="Hjs_BTQ6o8FuL1FfB40C-52" target="wosFcNRlOpJEMxotf_Ig-3">
          <mxGeometry relative="1" as="geometry">
            <Array as="points">
              <mxPoint x="790" y="170" />
              <mxPoint x="790" y="-120" />
            </Array>
          </mxGeometry>
        </mxCell>
        <mxCell id="wosFcNRlOpJEMxotf_Ig-9" value="opcode" style="edgeLabel;html=1;align=center;verticalAlign=middle;resizable=0;points=[];" connectable="0" vertex="1" parent="wosFcNRlOpJEMxotf_Ig-7">
          <mxGeometry x="0.4192" relative="1" as="geometry">
            <mxPoint y="-45" as="offset" />
          </mxGeometry>
        </mxCell>
        <mxCell id="Hjs_BTQ6o8FuL1FfB40C-52" value="Decode" style="rounded=0;whiteSpace=wrap;html=1;" vertex="1" parent="1">
          <mxGeometry x="670" y="120" width="100" height="130" as="geometry" />
        </mxCell>
        <mxCell id="Hjs_BTQ6o8FuL1FfB40C-53" value="Registers" style="rounded=0;whiteSpace=wrap;html=1;" vertex="1" parent="1">
          <mxGeometry x="890" y="50" width="170" height="120" as="geometry" />
        </mxCell>
        <mxCell id="Hjs_BTQ6o8FuL1FfB40C-57" style="edgeStyle=orthogonalEdgeStyle;rounded=0;orthogonalLoop=1;jettySize=auto;html=1;entryX=1.008;entryY=0.678;entryDx=0;entryDy=0;entryPerimeter=0;endArrow=none;endFill=0;startArrow=classic;startFill=1;" edge="1" parent="1" source="Hjs_BTQ6o8FuL1FfB40C-52" target="Hjs_BTQ6o8FuL1FfB40C-45">
          <mxGeometry relative="1" as="geometry" />
        </mxCell>
        <mxCell id="wosFcNRlOpJEMxotf_Ig-1" style="edgeStyle=orthogonalEdgeStyle;rounded=0;orthogonalLoop=1;jettySize=auto;html=1;entryX=-0.003;entryY=0.843;entryDx=0;entryDy=0;entryPerimeter=0;" edge="1" parent="1" source="Hjs_BTQ6o8FuL1FfB40C-52" target="Hjs_BTQ6o8FuL1FfB40C-53">
          <mxGeometry relative="1" as="geometry">
            <Array as="points">
              <mxPoint x="850" y="210" />
              <mxPoint x="850" y="151" />
            </Array>
          </mxGeometry>
        </mxCell>
        <mxCell id="wosFcNRlOpJEMxotf_Ig-6" value="rs2" style="edgeLabel;html=1;align=center;verticalAlign=middle;resizable=0;points=[];" connectable="0" vertex="1" parent="wosFcNRlOpJEMxotf_Ig-1">
          <mxGeometry x="0.3464" relative="1" as="geometry">
            <mxPoint x="10" y="-20" as="offset" />
          </mxGeometry>
        </mxCell>
        <mxCell id="wosFcNRlOpJEMxotf_Ig-22" style="edgeStyle=orthogonalEdgeStyle;rounded=0;orthogonalLoop=1;jettySize=auto;html=1;" edge="1" parent="1" source="wosFcNRlOpJEMxotf_Ig-3">
          <mxGeometry relative="1" as="geometry">
            <mxPoint x="1128.9444444444443" y="-143.6111111111111" as="targetPoint" />
            <Array as="points">
              <mxPoint x="1037" y="-143" />
            </Array>
          </mxGeometry>
        </mxCell>
        <mxCell id="wosFcNRlOpJEMxotf_Ig-35" value="memWrite" style="edgeLabel;html=1;align=center;verticalAlign=middle;resizable=0;points=[];" connectable="0" vertex="1" parent="wosFcNRlOpJEMxotf_Ig-22">
          <mxGeometry x="-0.2275" y="1" relative="1" as="geometry">
            <mxPoint as="offset" />
          </mxGeometry>
        </mxCell>
        <mxCell id="wosFcNRlOpJEMxotf_Ig-23" style="edgeStyle=orthogonalEdgeStyle;rounded=0;orthogonalLoop=1;jettySize=auto;html=1;" edge="1" parent="1" source="wosFcNRlOpJEMxotf_Ig-3">
          <mxGeometry relative="1" as="geometry">
            <mxPoint x="1128.9444444444443" y="-130.55555555555566" as="targetPoint" />
            <Array as="points">
              <mxPoint x="1037" y="-130" />
            </Array>
          </mxGeometry>
        </mxCell>
        <mxCell id="wosFcNRlOpJEMxotf_Ig-34" value="memIns" style="edgeLabel;html=1;align=center;verticalAlign=middle;resizable=0;points=[];" connectable="0" vertex="1" parent="wosFcNRlOpJEMxotf_Ig-23">
          <mxGeometry x="-0.212" y="1" relative="1" as="geometry">
            <mxPoint x="-1" y="-1" as="offset" />
          </mxGeometry>
        </mxCell>
        <mxCell id="wosFcNRlOpJEMxotf_Ig-24" style="edgeStyle=orthogonalEdgeStyle;rounded=0;orthogonalLoop=1;jettySize=auto;html=1;" edge="1" parent="1" source="wosFcNRlOpJEMxotf_Ig-3">
          <mxGeometry relative="1" as="geometry">
            <mxPoint x="1128.9444444444443" y="-118.61111111111109" as="targetPoint" />
            <Array as="points">
              <mxPoint x="1037" y="-118" />
            </Array>
          </mxGeometry>
        </mxCell>
        <mxCell id="wosFcNRlOpJEMxotf_Ig-33" value="aluOpcode" style="edgeLabel;html=1;align=center;verticalAlign=middle;resizable=0;points=[];" connectable="0" vertex="1" parent="wosFcNRlOpJEMxotf_Ig-24">
          <mxGeometry x="-0.2224" y="2" relative="1" as="geometry">
            <mxPoint y="-1" as="offset" />
          </mxGeometry>
        </mxCell>
        <mxCell id="wosFcNRlOpJEMxotf_Ig-26" style="edgeStyle=orthogonalEdgeStyle;rounded=0;orthogonalLoop=1;jettySize=auto;html=1;entryX=-0.027;entryY=0.2;entryDx=0;entryDy=0;entryPerimeter=0;" edge="1" parent="1" source="wosFcNRlOpJEMxotf_Ig-3" target="wosFcNRlOpJEMxotf_Ig-10">
          <mxGeometry relative="1" as="geometry">
            <mxPoint x="1120" y="-97" as="targetPoint" />
            <Array as="points">
              <mxPoint x="1037" y="-97" />
            </Array>
          </mxGeometry>
        </mxCell>
        <mxCell id="wosFcNRlOpJEMxotf_Ig-31" value="branchType" style="edgeLabel;html=1;align=center;verticalAlign=middle;resizable=0;points=[];" connectable="0" vertex="1" parent="wosFcNRlOpJEMxotf_Ig-26">
          <mxGeometry x="-0.2753" y="1" relative="1" as="geometry">
            <mxPoint x="8" as="offset" />
          </mxGeometry>
        </mxCell>
        <mxCell id="wosFcNRlOpJEMxotf_Ig-3" value="Control" style="rounded=0;whiteSpace=wrap;html=1;" vertex="1" parent="1">
          <mxGeometry x="840" y="-200" width="105" height="160" as="geometry" />
        </mxCell>
        <mxCell id="wosFcNRlOpJEMxotf_Ig-4" style="edgeStyle=orthogonalEdgeStyle;rounded=0;orthogonalLoop=1;jettySize=auto;html=1;entryX=-0.007;entryY=0.709;entryDx=0;entryDy=0;entryPerimeter=0;" edge="1" parent="1" source="Hjs_BTQ6o8FuL1FfB40C-52" target="wosFcNRlOpJEMxotf_Ig-3">
          <mxGeometry relative="1" as="geometry" />
        </mxCell>
        <mxCell id="wosFcNRlOpJEMxotf_Ig-8" value="type" style="edgeLabel;html=1;align=center;verticalAlign=middle;resizable=0;points=[];" connectable="0" vertex="1" parent="wosFcNRlOpJEMxotf_Ig-4">
          <mxGeometry x="0.571" relative="1" as="geometry">
            <mxPoint y="-32" as="offset" />
          </mxGeometry>
        </mxCell>
        <mxCell id="wosFcNRlOpJEMxotf_Ig-60" style="edgeStyle=orthogonalEdgeStyle;rounded=0;orthogonalLoop=1;jettySize=auto;html=1;entryX=0.25;entryY=0;entryDx=0;entryDy=0;" edge="1" parent="1" source="wosFcNRlOpJEMxotf_Ig-10" target="wosFcNRlOpJEMxotf_Ig-50">
          <mxGeometry relative="1" as="geometry">
            <Array as="points">
              <mxPoint x="1200" y="90" />
              <mxPoint x="1200" y="90" />
            </Array>
          </mxGeometry>
        </mxCell>
        <mxCell id="wosFcNRlOpJEMxotf_Ig-61" style="edgeStyle=orthogonalEdgeStyle;rounded=0;orthogonalLoop=1;jettySize=auto;html=1;entryX=0.25;entryY=0;entryDx=0;entryDy=0;" edge="1" parent="1" source="wosFcNRlOpJEMxotf_Ig-10" target="wosFcNRlOpJEMxotf_Ig-51">
          <mxGeometry relative="1" as="geometry">
            <Array as="points">
              <mxPoint x="1245" y="140" />
              <mxPoint x="1245" y="150" />
            </Array>
          </mxGeometry>
        </mxCell>
        <mxCell id="wosFcNRlOpJEMxotf_Ig-62" style="edgeStyle=orthogonalEdgeStyle;rounded=0;orthogonalLoop=1;jettySize=auto;html=1;entryX=0.75;entryY=0;entryDx=0;entryDy=0;jumpStyle=arc;" edge="1" parent="1" source="wosFcNRlOpJEMxotf_Ig-10" target="wosFcNRlOpJEMxotf_Ig-53">
          <mxGeometry relative="1" as="geometry">
            <Array as="points">
              <mxPoint x="1292" />
              <mxPoint x="1292" y="-10" />
            </Array>
          </mxGeometry>
        </mxCell>
        <mxCell id="wosFcNRlOpJEMxotf_Ig-63" style="edgeStyle=orthogonalEdgeStyle;rounded=0;orthogonalLoop=1;jettySize=auto;html=1;entryX=0.25;entryY=0;entryDx=0;entryDy=0;" edge="1" parent="1" source="wosFcNRlOpJEMxotf_Ig-10" target="wosFcNRlOpJEMxotf_Ig-55">
          <mxGeometry relative="1" as="geometry">
            <Array as="points">
              <mxPoint x="1285" y="230" />
              <mxPoint x="1285" y="170" />
            </Array>
          </mxGeometry>
        </mxCell>
        <mxCell id="wosFcNRlOpJEMxotf_Ig-64" style="edgeStyle=orthogonalEdgeStyle;rounded=0;orthogonalLoop=1;jettySize=auto;html=1;" edge="1" parent="1" source="wosFcNRlOpJEMxotf_Ig-10" target="wosFcNRlOpJEMxotf_Ig-53">
          <mxGeometry relative="1" as="geometry">
            <Array as="points">
              <mxPoint x="1400" y="-107" />
            </Array>
          </mxGeometry>
        </mxCell>
        <mxCell id="LMC3JeOJ01J2Opj6Jf-o-101" value="aluSrc" style="edgeLabel;html=1;align=center;verticalAlign=middle;resizable=0;points=[];" connectable="0" vertex="1" parent="wosFcNRlOpJEMxotf_Ig-64">
          <mxGeometry x="0.7935" relative="1" as="geometry">
            <mxPoint y="6" as="offset" />
          </mxGeometry>
        </mxCell>
        <mxCell id="wosFcNRlOpJEMxotf_Ig-67" style="edgeStyle=orthogonalEdgeStyle;rounded=0;orthogonalLoop=1;jettySize=auto;html=1;entryX=1;entryY=0.5;entryDx=0;entryDy=0;" edge="1" parent="1" source="wosFcNRlOpJEMxotf_Ig-10" target="wosFcNRlOpJEMxotf_Ig-41">
          <mxGeometry relative="1" as="geometry">
            <Array as="points">
              <mxPoint x="1545" y="-120" />
            </Array>
          </mxGeometry>
        </mxCell>
        <mxCell id="LMC3JeOJ01J2Opj6Jf-o-97" value="aluOp" style="edgeLabel;html=1;align=center;verticalAlign=middle;resizable=0;points=[];" connectable="0" vertex="1" parent="wosFcNRlOpJEMxotf_Ig-67">
          <mxGeometry x="0.8955" y="1" relative="1" as="geometry">
            <mxPoint as="offset" />
          </mxGeometry>
        </mxCell>
        <mxCell id="wosFcNRlOpJEMxotf_Ig-69" style="edgeStyle=orthogonalEdgeStyle;rounded=0;orthogonalLoop=1;jettySize=auto;html=1;entryX=0;entryY=0.25;entryDx=0;entryDy=0;jumpStyle=arc;" edge="1" parent="1" source="wosFcNRlOpJEMxotf_Ig-10" target="wosFcNRlOpJEMxotf_Ig-68">
          <mxGeometry relative="1" as="geometry">
            <Array as="points">
              <mxPoint x="1295" y="-95" />
              <mxPoint x="1295" y="265" />
            </Array>
          </mxGeometry>
        </mxCell>
        <mxCell id="wosFcNRlOpJEMxotf_Ig-75" style="edgeStyle=orthogonalEdgeStyle;rounded=0;orthogonalLoop=1;jettySize=auto;html=1;entryX=0.175;entryY=0.75;entryDx=0;entryDy=0;entryPerimeter=0;jumpStyle=arc;" edge="1" parent="1" source="wosFcNRlOpJEMxotf_Ig-10" target="wosFcNRlOpJEMxotf_Ig-74">
          <mxGeometry relative="1" as="geometry">
            <mxPoint x="1530" y="334.57142857142856" as="targetPoint" />
            <Array as="points">
              <mxPoint x="1210" y="-72" />
              <mxPoint x="1210" y="353" />
              <mxPoint x="1565" y="353" />
            </Array>
          </mxGeometry>
        </mxCell>
        <mxCell id="wosFcNRlOpJEMxotf_Ig-10" value="IDEX" style="rounded=0;whiteSpace=wrap;html=1;" vertex="1" parent="1">
          <mxGeometry x="1130" y="-200" width="60" height="520" as="geometry" />
        </mxCell>
        <mxCell id="wosFcNRlOpJEMxotf_Ig-11" style="edgeStyle=orthogonalEdgeStyle;rounded=0;orthogonalLoop=1;jettySize=auto;html=1;jumpStyle=arc;entryX=0;entryY=0.386;entryDx=0;entryDy=0;entryPerimeter=0;" edge="1" parent="1" source="Hjs_BTQ6o8FuL1FfB40C-45" target="wosFcNRlOpJEMxotf_Ig-10">
          <mxGeometry relative="1" as="geometry">
            <mxPoint x="1126" y="1" as="targetPoint" />
            <Array as="points">
              <mxPoint x="855" />
            </Array>
          </mxGeometry>
        </mxCell>
        <mxCell id="wosFcNRlOpJEMxotf_Ig-12" style="edgeStyle=orthogonalEdgeStyle;rounded=0;orthogonalLoop=1;jettySize=auto;html=1;" edge="1" parent="1" source="Hjs_BTQ6o8FuL1FfB40C-52">
          <mxGeometry relative="1" as="geometry">
            <mxPoint x="1130" y="230" as="targetPoint" />
            <Array as="points">
              <mxPoint x="1129" y="230" />
            </Array>
          </mxGeometry>
        </mxCell>
        <mxCell id="wosFcNRlOpJEMxotf_Ig-13" value="Imm" style="edgeLabel;html=1;align=center;verticalAlign=middle;resizable=0;points=[];" connectable="0" vertex="1" parent="wosFcNRlOpJEMxotf_Ig-12">
          <mxGeometry x="0.877" y="1" relative="1" as="geometry">
            <mxPoint as="offset" />
          </mxGeometry>
        </mxCell>
        <mxCell id="wosFcNRlOpJEMxotf_Ig-14" style="edgeStyle=orthogonalEdgeStyle;rounded=0;orthogonalLoop=1;jettySize=auto;html=1;" edge="1" parent="1" source="Hjs_BTQ6o8FuL1FfB40C-53">
          <mxGeometry relative="1" as="geometry">
            <mxPoint x="1130" y="90" as="targetPoint" />
            <Array as="points">
              <mxPoint x="1128" y="90" />
            </Array>
          </mxGeometry>
        </mxCell>
        <mxCell id="wosFcNRlOpJEMxotf_Ig-16" value="Reg1" style="edgeLabel;html=1;align=center;verticalAlign=middle;resizable=0;points=[];" connectable="0" vertex="1" parent="wosFcNRlOpJEMxotf_Ig-14">
          <mxGeometry x="-0.1714" y="1" relative="1" as="geometry">
            <mxPoint as="offset" />
          </mxGeometry>
        </mxCell>
        <mxCell id="wosFcNRlOpJEMxotf_Ig-15" style="edgeStyle=orthogonalEdgeStyle;rounded=0;orthogonalLoop=1;jettySize=auto;html=1;" edge="1" parent="1" source="Hjs_BTQ6o8FuL1FfB40C-53">
          <mxGeometry relative="1" as="geometry">
            <mxPoint x="1130" y="140" as="targetPoint" />
            <Array as="points">
              <mxPoint x="1128" y="140" />
            </Array>
          </mxGeometry>
        </mxCell>
        <mxCell id="wosFcNRlOpJEMxotf_Ig-17" value="Reg2" style="edgeLabel;html=1;align=center;verticalAlign=middle;resizable=0;points=[];" connectable="0" vertex="1" parent="wosFcNRlOpJEMxotf_Ig-15">
          <mxGeometry x="-0.4653" y="2" relative="1" as="geometry">
            <mxPoint x="11" y="2" as="offset" />
          </mxGeometry>
        </mxCell>
        <mxCell id="wosFcNRlOpJEMxotf_Ig-19" style="edgeStyle=orthogonalEdgeStyle;rounded=0;orthogonalLoop=1;jettySize=auto;html=1;entryX=0;entryY=0.038;entryDx=0;entryDy=0;entryPerimeter=0;" edge="1" parent="1" source="wosFcNRlOpJEMxotf_Ig-3" target="wosFcNRlOpJEMxotf_Ig-10">
          <mxGeometry relative="1" as="geometry">
            <Array as="points">
              <mxPoint x="1038" y="-180" />
            </Array>
          </mxGeometry>
        </mxCell>
        <mxCell id="wosFcNRlOpJEMxotf_Ig-38" value="regWrIdx" style="edgeLabel;html=1;align=center;verticalAlign=middle;resizable=0;points=[];" connectable="0" vertex="1" parent="wosFcNRlOpJEMxotf_Ig-19">
          <mxGeometry x="-0.2216" relative="1" as="geometry">
            <mxPoint y="-4" as="offset" />
          </mxGeometry>
        </mxCell>
        <mxCell id="wosFcNRlOpJEMxotf_Ig-20" style="edgeStyle=orthogonalEdgeStyle;rounded=0;orthogonalLoop=1;jettySize=auto;html=1;" edge="1" parent="1" source="wosFcNRlOpJEMxotf_Ig-3">
          <mxGeometry relative="1" as="geometry">
            <mxPoint x="1129" y="-170" as="targetPoint" />
            <Array as="points">
              <mxPoint x="1129" y="-170" />
            </Array>
          </mxGeometry>
        </mxCell>
        <mxCell id="wosFcNRlOpJEMxotf_Ig-37" value="regWriteSrc" style="edgeLabel;html=1;align=center;verticalAlign=middle;resizable=0;points=[];" connectable="0" vertex="1" parent="wosFcNRlOpJEMxotf_Ig-20">
          <mxGeometry x="-0.1605" y="1" relative="1" as="geometry">
            <mxPoint as="offset" />
          </mxGeometry>
        </mxCell>
        <mxCell id="wosFcNRlOpJEMxotf_Ig-21" style="edgeStyle=orthogonalEdgeStyle;rounded=0;orthogonalLoop=1;jettySize=auto;html=1;entryX=-0.027;entryY=0.081;entryDx=0;entryDy=0;entryPerimeter=0;" edge="1" parent="1" source="wosFcNRlOpJEMxotf_Ig-3" target="wosFcNRlOpJEMxotf_Ig-10">
          <mxGeometry relative="1" as="geometry">
            <Array as="points">
              <mxPoint x="985" y="-158" />
              <mxPoint x="985" y="-158" />
            </Array>
          </mxGeometry>
        </mxCell>
        <mxCell id="wosFcNRlOpJEMxotf_Ig-36" value="regWrite" style="edgeLabel;html=1;align=center;verticalAlign=middle;resizable=0;points=[];" connectable="0" vertex="1" parent="wosFcNRlOpJEMxotf_Ig-21">
          <mxGeometry x="-0.1472" y="1" relative="1" as="geometry">
            <mxPoint x="-2" y="3" as="offset" />
          </mxGeometry>
        </mxCell>
        <mxCell id="wosFcNRlOpJEMxotf_Ig-25" style="edgeStyle=orthogonalEdgeStyle;rounded=0;orthogonalLoop=1;jettySize=auto;html=1;entryX=-0.022;entryY=0.179;entryDx=0;entryDy=0;entryPerimeter=0;" edge="1" parent="1" source="wosFcNRlOpJEMxotf_Ig-3" target="wosFcNRlOpJEMxotf_Ig-10">
          <mxGeometry relative="1" as="geometry">
            <Array as="points">
              <mxPoint x="991" y="-107" />
              <mxPoint x="991" y="-107" />
            </Array>
          </mxGeometry>
        </mxCell>
        <mxCell id="wosFcNRlOpJEMxotf_Ig-32" value="aluSrc" style="edgeLabel;html=1;align=center;verticalAlign=middle;resizable=0;points=[];" connectable="0" vertex="1" parent="wosFcNRlOpJEMxotf_Ig-25">
          <mxGeometry x="-0.2063" y="2" relative="1" as="geometry">
            <mxPoint as="offset" />
          </mxGeometry>
        </mxCell>
        <mxCell id="wosFcNRlOpJEMxotf_Ig-27" style="edgeStyle=orthogonalEdgeStyle;rounded=0;orthogonalLoop=1;jettySize=auto;html=1;entryX=-0.045;entryY=0.223;entryDx=0;entryDy=0;entryPerimeter=0;" edge="1" parent="1" source="wosFcNRlOpJEMxotf_Ig-3" target="wosFcNRlOpJEMxotf_Ig-10">
          <mxGeometry relative="1" as="geometry">
            <Array as="points">
              <mxPoint x="1038" y="-84" />
              <mxPoint x="1038" y="-84" />
            </Array>
          </mxGeometry>
        </mxCell>
        <mxCell id="wosFcNRlOpJEMxotf_Ig-30" value="branchEnable" style="edgeLabel;html=1;align=center;verticalAlign=middle;resizable=0;points=[];" connectable="0" vertex="1" parent="wosFcNRlOpJEMxotf_Ig-27">
          <mxGeometry x="-0.344" y="1" relative="1" as="geometry">
            <mxPoint x="15" as="offset" />
          </mxGeometry>
        </mxCell>
        <mxCell id="wosFcNRlOpJEMxotf_Ig-28" style="edgeStyle=orthogonalEdgeStyle;rounded=0;orthogonalLoop=1;jettySize=auto;html=1;entryX=-0.045;entryY=0.246;entryDx=0;entryDy=0;entryPerimeter=0;" edge="1" parent="1" source="wosFcNRlOpJEMxotf_Ig-3" target="wosFcNRlOpJEMxotf_Ig-10">
          <mxGeometry relative="1" as="geometry">
            <Array as="points">
              <mxPoint x="995" y="-72" />
              <mxPoint x="995" y="-72" />
            </Array>
          </mxGeometry>
        </mxCell>
        <mxCell id="wosFcNRlOpJEMxotf_Ig-29" value="jumpEnable" style="edgeLabel;html=1;align=center;verticalAlign=middle;resizable=0;points=[];" connectable="0" vertex="1" parent="wosFcNRlOpJEMxotf_Ig-28">
          <mxGeometry x="-0.2003" y="-2" relative="1" as="geometry">
            <mxPoint as="offset" />
          </mxGeometry>
        </mxCell>
        <mxCell id="wosFcNRlOpJEMxotf_Ig-40" value="" style="group" connectable="0" vertex="1" parent="1">
          <mxGeometry x="1480" width="130" height="160" as="geometry" />
        </mxCell>
        <mxCell id="wosFcNRlOpJEMxotf_Ig-41" value="ALU" style="verticalLabelPosition=middle;verticalAlign=middle;html=1;shape=trapezoid;perimeter=trapezoidPerimeter;whiteSpace=wrap;size=0.23;arcSize=10;flipV=1;labelPosition=center;align=center;rotation=-90;" vertex="1" parent="wosFcNRlOpJEMxotf_Ig-40">
          <mxGeometry x="-38.99999999999999" y="30" width="208" height="100" as="geometry" />
        </mxCell>
        <mxCell id="wosFcNRlOpJEMxotf_Ig-42" value="" style="triangle;whiteSpace=wrap;html=1;strokeColor=#ffffff;" vertex="1" parent="wosFcNRlOpJEMxotf_Ig-40">
          <mxGeometry x="10" y="55" width="36.4" height="59" as="geometry" />
        </mxCell>
        <mxCell id="wosFcNRlOpJEMxotf_Ig-43" value="" style="endArrow=none;html=1;rounded=0;" edge="1" parent="wosFcNRlOpJEMxotf_Ig-40">
          <mxGeometry width="50" height="50" relative="1" as="geometry">
            <mxPoint x="48" y="84" as="sourcePoint" />
            <mxPoint x="14.000000000000009" y="57" as="targetPoint" />
          </mxGeometry>
        </mxCell>
        <mxCell id="wosFcNRlOpJEMxotf_Ig-44" value="" style="endArrow=none;html=1;rounded=0;" edge="1" parent="wosFcNRlOpJEMxotf_Ig-40">
          <mxGeometry width="50" height="50" relative="1" as="geometry">
            <mxPoint x="14.000000000000009" y="112" as="sourcePoint" />
            <mxPoint x="49" y="84" as="targetPoint" />
          </mxGeometry>
        </mxCell>
        <mxCell id="wosFcNRlOpJEMxotf_Ig-56" style="edgeStyle=orthogonalEdgeStyle;rounded=0;orthogonalLoop=1;jettySize=auto;html=1;entryX=0.25;entryY=0;entryDx=0;entryDy=0;" edge="1" parent="1" source="wosFcNRlOpJEMxotf_Ig-50" target="wosFcNRlOpJEMxotf_Ig-53">
          <mxGeometry relative="1" as="geometry" />
        </mxCell>
        <mxCell id="wosFcNRlOpJEMxotf_Ig-50" value="frw" style="verticalLabelPosition=middle;verticalAlign=middle;html=1;shape=trapezoid;perimeter=trapezoidPerimeter;whiteSpace=wrap;size=0.23;arcSize=10;flipV=1;labelPosition=center;align=center;rotation=-90;" vertex="1" parent="1">
          <mxGeometry x="1250" y="70" width="40" height="20" as="geometry" />
        </mxCell>
        <mxCell id="wosFcNRlOpJEMxotf_Ig-57" style="edgeStyle=orthogonalEdgeStyle;rounded=0;orthogonalLoop=1;jettySize=auto;html=1;entryX=0.75;entryY=0;entryDx=0;entryDy=0;" edge="1" parent="1" source="wosFcNRlOpJEMxotf_Ig-51" target="wosFcNRlOpJEMxotf_Ig-55">
          <mxGeometry relative="1" as="geometry">
            <Array as="points">
              <mxPoint x="1350" y="140" />
              <mxPoint x="1350" y="150" />
            </Array>
          </mxGeometry>
        </mxCell>
        <mxCell id="wosFcNRlOpJEMxotf_Ig-51" value="frw" style="verticalLabelPosition=middle;verticalAlign=middle;html=1;shape=trapezoid;perimeter=trapezoidPerimeter;whiteSpace=wrap;size=0.23;arcSize=10;flipV=1;labelPosition=center;align=center;rotation=-90;" vertex="1" parent="1">
          <mxGeometry x="1298" y="130" width="40" height="20" as="geometry" />
        </mxCell>
        <mxCell id="wosFcNRlOpJEMxotf_Ig-53" value="" style="verticalLabelPosition=middle;verticalAlign=middle;html=1;shape=trapezoid;perimeter=trapezoidPerimeter;whiteSpace=wrap;size=0.23;arcSize=10;flipV=1;labelPosition=center;align=center;rotation=-90;" vertex="1" parent="1">
          <mxGeometry x="1380" y="-10" width="40" height="20" as="geometry" />
        </mxCell>
        <mxCell id="wosFcNRlOpJEMxotf_Ig-55" value="" style="verticalLabelPosition=middle;verticalAlign=middle;html=1;shape=trapezoid;perimeter=trapezoidPerimeter;whiteSpace=wrap;size=0.23;arcSize=10;flipV=1;labelPosition=center;align=center;rotation=-90;" vertex="1" parent="1">
          <mxGeometry x="1370" y="150" width="40" height="20" as="geometry" />
        </mxCell>
        <mxCell id="wosFcNRlOpJEMxotf_Ig-58" style="edgeStyle=orthogonalEdgeStyle;rounded=0;orthogonalLoop=1;jettySize=auto;html=1;entryX=0.166;entryY=1.006;entryDx=0;entryDy=0;entryPerimeter=0;" edge="1" parent="1" source="wosFcNRlOpJEMxotf_Ig-55" target="wosFcNRlOpJEMxotf_Ig-41">
          <mxGeometry relative="1" as="geometry" />
        </mxCell>
        <mxCell id="LMC3JeOJ01J2Opj6Jf-o-99" value="in2" style="edgeLabel;html=1;align=center;verticalAlign=middle;resizable=0;points=[];" connectable="0" vertex="1" parent="wosFcNRlOpJEMxotf_Ig-58">
          <mxGeometry x="0.379" y="-2" relative="1" as="geometry">
            <mxPoint x="8" y="-2" as="offset" />
          </mxGeometry>
        </mxCell>
        <mxCell id="wosFcNRlOpJEMxotf_Ig-59" style="edgeStyle=orthogonalEdgeStyle;rounded=0;orthogonalLoop=1;jettySize=auto;html=1;entryX=0.786;entryY=0.999;entryDx=0;entryDy=0;entryPerimeter=0;" edge="1" parent="1" source="wosFcNRlOpJEMxotf_Ig-53" target="wosFcNRlOpJEMxotf_Ig-41">
          <mxGeometry relative="1" as="geometry" />
        </mxCell>
        <mxCell id="LMC3JeOJ01J2Opj6Jf-o-98" value="in1" style="edgeLabel;html=1;align=center;verticalAlign=middle;resizable=0;points=[];" connectable="0" vertex="1" parent="wosFcNRlOpJEMxotf_Ig-59">
          <mxGeometry x="0.3204" relative="1" as="geometry">
            <mxPoint x="11" as="offset" />
          </mxGeometry>
        </mxCell>
        <mxCell id="wosFcNRlOpJEMxotf_Ig-66" value="" style="endArrow=classic;html=1;rounded=0;entryX=1;entryY=0.5;entryDx=0;entryDy=0;edgeStyle=orthogonalEdgeStyle;jumpStyle=arc;" edge="1" parent="1" target="wosFcNRlOpJEMxotf_Ig-55">
          <mxGeometry width="50" height="50" relative="1" as="geometry">
            <mxPoint x="1360" y="-107" as="sourcePoint" />
            <mxPoint x="1270" as="targetPoint" />
            <Array as="points">
              <mxPoint x="1360" y="110" />
              <mxPoint x="1390" y="110" />
            </Array>
          </mxGeometry>
        </mxCell>
        <mxCell id="LMC3JeOJ01J2Opj6Jf-o-100" value="aluSrc" style="edgeLabel;html=1;align=center;verticalAlign=middle;resizable=0;points=[];" connectable="0" vertex="1" parent="wosFcNRlOpJEMxotf_Ig-66">
          <mxGeometry x="0.8389" y="1" relative="1" as="geometry">
            <mxPoint as="offset" />
          </mxGeometry>
        </mxCell>
        <mxCell id="wosFcNRlOpJEMxotf_Ig-68" value="Branch" style="rounded=0;whiteSpace=wrap;html=1;" vertex="1" parent="1">
          <mxGeometry x="1400" y="250" width="80" height="60" as="geometry" />
        </mxCell>
        <mxCell id="wosFcNRlOpJEMxotf_Ig-70" value="" style="endArrow=classic;html=1;rounded=0;edgeStyle=elbowEdgeStyle;elbow=vertical;entryX=0;entryY=0.5;entryDx=0;entryDy=0;jumpStyle=arc;" edge="1" parent="1" target="wosFcNRlOpJEMxotf_Ig-68">
          <mxGeometry width="50" height="50" relative="1" as="geometry">
            <mxPoint x="1330" y="80" as="sourcePoint" />
            <mxPoint x="1330" y="300" as="targetPoint" />
            <Array as="points">
              <mxPoint x="1360" y="280" />
            </Array>
          </mxGeometry>
        </mxCell>
        <mxCell id="wosFcNRlOpJEMxotf_Ig-71" value="" style="endArrow=classic;html=1;rounded=0;edgeStyle=orthogonalEdgeStyle;entryX=0;entryY=0.75;entryDx=0;entryDy=0;jumpStyle=arc;" edge="1" parent="1" target="wosFcNRlOpJEMxotf_Ig-68">
          <mxGeometry width="50" height="50" relative="1" as="geometry">
            <mxPoint x="1350" y="140" as="sourcePoint" />
            <mxPoint x="1350" y="301.2" as="targetPoint" />
            <Array as="points">
              <mxPoint x="1350" y="295" />
            </Array>
          </mxGeometry>
        </mxCell>
        <mxCell id="wosFcNRlOpJEMxotf_Ig-72" value="" style="shape=or;whiteSpace=wrap;html=1;" vertex="1" parent="1">
          <mxGeometry x="1520" y="300" width="20" height="30" as="geometry" />
        </mxCell>
        <mxCell id="wosFcNRlOpJEMxotf_Ig-80" style="edgeStyle=orthogonalEdgeStyle;rounded=0;orthogonalLoop=1;jettySize=auto;html=1;entryX=0;entryY=0.5;entryDx=0;entryDy=0;" edge="1" parent="1" source="wosFcNRlOpJEMxotf_Ig-74" target="Hjs_BTQ6o8FuL1FfB40C-10">
          <mxGeometry relative="1" as="geometry">
            <mxPoint x="74" y="180" as="targetPoint" />
            <Array as="points">
              <mxPoint x="1610" y="345" />
              <mxPoint x="1610" y="380" />
              <mxPoint x="140" y="380" />
            </Array>
          </mxGeometry>
        </mxCell>
        <mxCell id="wosFcNRlOpJEMxotf_Ig-82" value="jmp" style="edgeLabel;html=1;align=center;verticalAlign=middle;resizable=0;points=[];" connectable="0" vertex="1" parent="wosFcNRlOpJEMxotf_Ig-80">
          <mxGeometry x="0.9673" relative="1" as="geometry">
            <mxPoint y="-8" as="offset" />
          </mxGeometry>
        </mxCell>
        <mxCell id="wosFcNRlOpJEMxotf_Ig-74" value="" style="shape=xor;whiteSpace=wrap;html=1;" vertex="1" parent="1">
          <mxGeometry x="1570" y="330" width="30" height="30" as="geometry" />
        </mxCell>
        <mxCell id="wosFcNRlOpJEMxotf_Ig-76" style="edgeStyle=orthogonalEdgeStyle;rounded=0;orthogonalLoop=1;jettySize=auto;html=1;entryX=0;entryY=0.75;entryDx=0;entryDy=0;entryPerimeter=0;jumpStyle=arc;" edge="1" parent="1" source="wosFcNRlOpJEMxotf_Ig-10" target="wosFcNRlOpJEMxotf_Ig-72">
          <mxGeometry relative="1" as="geometry">
            <Array as="points">
              <mxPoint x="1230" y="-83" />
              <mxPoint x="1230" y="323" />
            </Array>
          </mxGeometry>
        </mxCell>
        <mxCell id="wosFcNRlOpJEMxotf_Ig-77" style="edgeStyle=orthogonalEdgeStyle;rounded=0;orthogonalLoop=1;jettySize=auto;html=1;entryX=0;entryY=0.25;entryDx=0;entryDy=0;entryPerimeter=0;" edge="1" parent="1" source="wosFcNRlOpJEMxotf_Ig-68" target="wosFcNRlOpJEMxotf_Ig-72">
          <mxGeometry relative="1" as="geometry" />
        </mxCell>
        <mxCell id="wosFcNRlOpJEMxotf_Ig-78" style="edgeStyle=orthogonalEdgeStyle;rounded=0;orthogonalLoop=1;jettySize=auto;html=1;entryX=0.175;entryY=0.25;entryDx=0;entryDy=0;entryPerimeter=0;" edge="1" parent="1" source="wosFcNRlOpJEMxotf_Ig-72" target="wosFcNRlOpJEMxotf_Ig-74">
          <mxGeometry relative="1" as="geometry" />
        </mxCell>
        <mxCell id="wosFcNRlOpJEMxotf_Ig-84" style="edgeStyle=orthogonalEdgeStyle;rounded=0;orthogonalLoop=1;jettySize=auto;html=1;entryX=0.25;entryY=0;entryDx=0;entryDy=0;exitX=0.5;exitY=1;exitDx=0;exitDy=0;" edge="1" parent="1" source="wosFcNRlOpJEMxotf_Ig-41" target="Hjs_BTQ6o8FuL1FfB40C-10">
          <mxGeometry relative="1" as="geometry">
            <mxPoint x="30" y="180" as="targetPoint" />
            <mxPoint x="3075" y="80" as="sourcePoint" />
            <Array as="points">
              <mxPoint x="1626" y="80" />
              <mxPoint x="1626" y="400" />
              <mxPoint x="110" y="400" />
              <mxPoint x="110" y="183" />
            </Array>
          </mxGeometry>
        </mxCell>
        <mxCell id="wosFcNRlOpJEMxotf_Ig-85" value="newPc" style="edgeLabel;html=1;align=center;verticalAlign=middle;resizable=0;points=[];" connectable="0" vertex="1" parent="wosFcNRlOpJEMxotf_Ig-84">
          <mxGeometry x="0.9752" relative="1" as="geometry">
            <mxPoint y="9" as="offset" />
          </mxGeometry>
        </mxCell>
        <mxCell id="LMC3JeOJ01J2Opj6Jf-o-1" value="" style="triangle;whiteSpace=wrap;html=1;rotation=-90;" vertex="1" parent="1">
          <mxGeometry x="1150" y="290" width="20" height="40" as="geometry" />
        </mxCell>
        <mxCell id="LMC3JeOJ01J2Opj6Jf-o-19" style="edgeStyle=orthogonalEdgeStyle;rounded=0;orthogonalLoop=1;jettySize=auto;html=1;entryX=0;entryY=0.25;entryDx=0;entryDy=0;" edge="1" parent="1" source="LMC3JeOJ01J2Opj6Jf-o-3" target="LMC3JeOJ01J2Opj6Jf-o-18">
          <mxGeometry relative="1" as="geometry">
            <Array as="points">
              <mxPoint x="1850" y="80" />
              <mxPoint x="1850" y="102" />
            </Array>
          </mxGeometry>
        </mxCell>
        <mxCell id="LMC3JeOJ01J2Opj6Jf-o-22" value="Addr" style="edgeLabel;html=1;align=center;verticalAlign=middle;resizable=0;points=[];" connectable="0" vertex="1" parent="LMC3JeOJ01J2Opj6Jf-o-19">
          <mxGeometry x="0.5881" y="-1" relative="1" as="geometry">
            <mxPoint as="offset" />
          </mxGeometry>
        </mxCell>
        <mxCell id="LMC3JeOJ01J2Opj6Jf-o-3" value="EX/MEM" style="rounded=0;whiteSpace=wrap;html=1;dashed=1;" vertex="1" parent="1">
          <mxGeometry x="1710" y="-200" width="60" height="520" as="geometry" />
        </mxCell>
        <mxCell id="LMC3JeOJ01J2Opj6Jf-o-5" value="" style="triangle;whiteSpace=wrap;html=1;rotation=-90;" vertex="1" parent="1">
          <mxGeometry x="1730" y="10" width="20" height="40" as="geometry" />
        </mxCell>
        <mxCell id="LMC3JeOJ01J2Opj6Jf-o-8" value="" style="endArrow=classic;html=1;rounded=0;entryX=-0.006;entryY=0.538;entryDx=0;entryDy=0;entryPerimeter=0;" edge="1" parent="1" target="LMC3JeOJ01J2Opj6Jf-o-3">
          <mxGeometry width="50" height="50" relative="1" as="geometry">
            <mxPoint x="1620" y="80" as="sourcePoint" />
            <mxPoint x="1590" y="90" as="targetPoint" />
          </mxGeometry>
        </mxCell>
        <mxCell id="LMC3JeOJ01J2Opj6Jf-o-102" value="addr" style="edgeLabel;html=1;align=center;verticalAlign=middle;resizable=0;points=[];" connectable="0" vertex="1" parent="LMC3JeOJ01J2Opj6Jf-o-8">
          <mxGeometry x="0.151" y="-2" relative="1" as="geometry">
            <mxPoint x="-5" y="-2" as="offset" />
          </mxGeometry>
        </mxCell>
        <mxCell id="LMC3JeOJ01J2Opj6Jf-o-9" style="edgeStyle=orthogonalEdgeStyle;rounded=0;orthogonalLoop=1;jettySize=auto;html=1;entryX=-0.069;entryY=0.133;entryDx=0;entryDy=0;entryPerimeter=0;" edge="1" parent="1" source="wosFcNRlOpJEMxotf_Ig-10" target="LMC3JeOJ01J2Opj6Jf-o-3">
          <mxGeometry relative="1" as="geometry">
            <Array as="points">
              <mxPoint x="1280" y="-131" />
              <mxPoint x="1280" y="-131" />
            </Array>
          </mxGeometry>
        </mxCell>
        <mxCell id="LMC3JeOJ01J2Opj6Jf-o-96" value="memIns" style="edgeLabel;html=1;align=center;verticalAlign=middle;resizable=0;points=[];" connectable="0" vertex="1" parent="LMC3JeOJ01J2Opj6Jf-o-9">
          <mxGeometry x="0.6986" relative="1" as="geometry">
            <mxPoint x="-18" as="offset" />
          </mxGeometry>
        </mxCell>
        <mxCell id="LMC3JeOJ01J2Opj6Jf-o-10" style="edgeStyle=orthogonalEdgeStyle;rounded=0;orthogonalLoop=1;jettySize=auto;html=1;entryX=-0.056;entryY=0.107;entryDx=0;entryDy=0;entryPerimeter=0;" edge="1" parent="1" source="wosFcNRlOpJEMxotf_Ig-10" target="LMC3JeOJ01J2Opj6Jf-o-3">
          <mxGeometry relative="1" as="geometry">
            <Array as="points">
              <mxPoint x="1310" y="-144" />
              <mxPoint x="1310" y="-144" />
            </Array>
          </mxGeometry>
        </mxCell>
        <mxCell id="LMC3JeOJ01J2Opj6Jf-o-95" value="memWr" style="edgeLabel;html=1;align=center;verticalAlign=middle;resizable=0;points=[];" connectable="0" vertex="1" parent="LMC3JeOJ01J2Opj6Jf-o-10">
          <mxGeometry x="0.6977" y="1" relative="1" as="geometry">
            <mxPoint x="-18" as="offset" />
          </mxGeometry>
        </mxCell>
        <mxCell id="LMC3JeOJ01J2Opj6Jf-o-11" style="edgeStyle=orthogonalEdgeStyle;rounded=0;orthogonalLoop=1;jettySize=auto;html=1;entryX=-0.069;entryY=0.082;entryDx=0;entryDy=0;entryPerimeter=0;" edge="1" parent="1" source="wosFcNRlOpJEMxotf_Ig-10" target="LMC3JeOJ01J2Opj6Jf-o-3">
          <mxGeometry relative="1" as="geometry">
            <Array as="points">
              <mxPoint x="1280" y="-157" />
              <mxPoint x="1280" y="-157" />
            </Array>
          </mxGeometry>
        </mxCell>
        <mxCell id="LMC3JeOJ01J2Opj6Jf-o-94" value="&lt;div&gt;regWrite&lt;/div&gt;" style="edgeLabel;html=1;align=center;verticalAlign=middle;resizable=0;points=[];" connectable="0" vertex="1" parent="LMC3JeOJ01J2Opj6Jf-o-11">
          <mxGeometry x="0.7002" y="-1" relative="1" as="geometry">
            <mxPoint x="-18" as="offset" />
          </mxGeometry>
        </mxCell>
        <mxCell id="LMC3JeOJ01J2Opj6Jf-o-12" style="edgeStyle=orthogonalEdgeStyle;rounded=0;orthogonalLoop=1;jettySize=auto;html=1;entryX=-0.069;entryY=0.058;entryDx=0;entryDy=0;entryPerimeter=0;" edge="1" parent="1" source="wosFcNRlOpJEMxotf_Ig-10" target="LMC3JeOJ01J2Opj6Jf-o-3">
          <mxGeometry relative="1" as="geometry">
            <Array as="points">
              <mxPoint x="1310" y="-170" />
              <mxPoint x="1310" y="-170" />
            </Array>
          </mxGeometry>
        </mxCell>
        <mxCell id="LMC3JeOJ01J2Opj6Jf-o-93" value="regWriteSrc" style="edgeLabel;html=1;align=center;verticalAlign=middle;resizable=0;points=[];" connectable="0" vertex="1" parent="LMC3JeOJ01J2Opj6Jf-o-12">
          <mxGeometry x="0.733" relative="1" as="geometry">
            <mxPoint x="-27" as="offset" />
          </mxGeometry>
        </mxCell>
        <mxCell id="LMC3JeOJ01J2Opj6Jf-o-13" style="edgeStyle=orthogonalEdgeStyle;rounded=0;orthogonalLoop=1;jettySize=auto;html=1;entryX=-0.069;entryY=0.035;entryDx=0;entryDy=0;entryPerimeter=0;" edge="1" parent="1" source="wosFcNRlOpJEMxotf_Ig-10" target="LMC3JeOJ01J2Opj6Jf-o-3">
          <mxGeometry relative="1" as="geometry">
            <Array as="points">
              <mxPoint x="1290" y="-182" />
              <mxPoint x="1290" y="-182" />
            </Array>
          </mxGeometry>
        </mxCell>
        <mxCell id="LMC3JeOJ01J2Opj6Jf-o-92" value="regWrIdx" style="edgeLabel;html=1;align=center;verticalAlign=middle;resizable=0;points=[];" connectable="0" vertex="1" parent="LMC3JeOJ01J2Opj6Jf-o-13">
          <mxGeometry x="0.745" y="1" relative="1" as="geometry">
            <mxPoint x="-30" as="offset" />
          </mxGeometry>
        </mxCell>
        <mxCell id="LMC3JeOJ01J2Opj6Jf-o-23" style="edgeStyle=orthogonalEdgeStyle;rounded=0;orthogonalLoop=1;jettySize=auto;html=1;entryX=0.185;entryY=0.018;entryDx=0;entryDy=0;entryPerimeter=0;" edge="1" parent="1" source="LMC3JeOJ01J2Opj6Jf-o-15" target="LMC3JeOJ01J2Opj6Jf-o-18">
          <mxGeometry relative="1" as="geometry">
            <Array as="points">
              <mxPoint x="1930" y="-130" />
            </Array>
          </mxGeometry>
        </mxCell>
        <mxCell id="LMC3JeOJ01J2Opj6Jf-o-25" value="memIns" style="edgeLabel;html=1;align=center;verticalAlign=middle;resizable=0;points=[];" connectable="0" vertex="1" parent="LMC3JeOJ01J2Opj6Jf-o-23">
          <mxGeometry x="0.8386" y="-1" relative="1" as="geometry">
            <mxPoint as="offset" />
          </mxGeometry>
        </mxCell>
        <mxCell id="LMC3JeOJ01J2Opj6Jf-o-24" style="edgeStyle=orthogonalEdgeStyle;rounded=0;orthogonalLoop=1;jettySize=auto;html=1;entryX=0.438;entryY=0.01;entryDx=0;entryDy=0;entryPerimeter=0;" edge="1" parent="1" source="LMC3JeOJ01J2Opj6Jf-o-15" target="LMC3JeOJ01J2Opj6Jf-o-18">
          <mxGeometry relative="1" as="geometry">
            <Array as="points">
              <mxPoint x="1970" y="-143" />
            </Array>
          </mxGeometry>
        </mxCell>
        <mxCell id="LMC3JeOJ01J2Opj6Jf-o-26" value="memWrite" style="edgeLabel;html=1;align=center;verticalAlign=middle;resizable=0;points=[];" connectable="0" vertex="1" parent="LMC3JeOJ01J2Opj6Jf-o-24">
          <mxGeometry x="0.846" y="3" relative="1" as="geometry">
            <mxPoint as="offset" />
          </mxGeometry>
        </mxCell>
        <mxCell id="LMC3JeOJ01J2Opj6Jf-o-36" style="edgeStyle=orthogonalEdgeStyle;rounded=0;orthogonalLoop=1;jettySize=auto;html=1;entryX=-0.008;entryY=0.083;entryDx=0;entryDy=0;entryPerimeter=0;" edge="1" parent="1" source="LMC3JeOJ01J2Opj6Jf-o-15" target="LMC3JeOJ01J2Opj6Jf-o-31">
          <mxGeometry relative="1" as="geometry">
            <mxPoint x="2106.666666666667" y="-156.66666666666652" as="targetPoint" />
            <Array as="points">
              <mxPoint x="1840" y="-157" />
            </Array>
          </mxGeometry>
        </mxCell>
        <mxCell id="LMC3JeOJ01J2Opj6Jf-o-46" style="edgeStyle=orthogonalEdgeStyle;rounded=0;orthogonalLoop=1;jettySize=auto;html=1;" edge="1" parent="1" source="LMC3JeOJ01J2Opj6Jf-o-15">
          <mxGeometry relative="1" as="geometry">
            <mxPoint x="2107.551724137931" y="-62.9655172413793" as="targetPoint" />
            <Array as="points">
              <mxPoint x="1939" y="-63" />
              <mxPoint x="2108" y="-62" />
            </Array>
          </mxGeometry>
        </mxCell>
        <mxCell id="LMC3JeOJ01J2Opj6Jf-o-15" value="" style="rounded=0;whiteSpace=wrap;html=1;" vertex="1" parent="1">
          <mxGeometry x="1710" y="-200" width="60" height="240" as="geometry" />
        </mxCell>
        <mxCell id="LMC3JeOJ01J2Opj6Jf-o-16" value="" style="triangle;whiteSpace=wrap;html=1;rotation=-90;" vertex="1" parent="1">
          <mxGeometry x="1730" y="5" width="20" height="50" as="geometry" />
        </mxCell>
        <mxCell id="LMC3JeOJ01J2Opj6Jf-o-17" value="" style="endArrow=classic;html=1;rounded=0;entryX=-0.055;entryY=0.791;entryDx=0;entryDy=0;entryPerimeter=0;edgeStyle=orthogonalEdgeStyle;jumpStyle=arc;" edge="1" parent="1" target="LMC3JeOJ01J2Opj6Jf-o-3">
          <mxGeometry width="50" height="50" relative="1" as="geometry">
            <mxPoint x="1360" y="150" as="sourcePoint" />
            <mxPoint x="1550" y="240" as="targetPoint" />
            <Array as="points">
              <mxPoint x="1360" y="211" />
            </Array>
          </mxGeometry>
        </mxCell>
        <mxCell id="LMC3JeOJ01J2Opj6Jf-o-103" value="data" style="edgeLabel;html=1;align=center;verticalAlign=middle;resizable=0;points=[];" connectable="0" vertex="1" parent="LMC3JeOJ01J2Opj6Jf-o-17">
          <mxGeometry x="0.7771" y="1" relative="1" as="geometry">
            <mxPoint x="4" as="offset" />
          </mxGeometry>
        </mxCell>
        <mxCell id="LMC3JeOJ01J2Opj6Jf-o-20" style="edgeStyle=orthogonalEdgeStyle;rounded=0;orthogonalLoop=1;jettySize=auto;html=1;entryX=-0.007;entryY=0.627;entryDx=0;entryDy=0;entryPerimeter=0;" edge="1" parent="1" source="LMC3JeOJ01J2Opj6Jf-o-3" target="LMC3JeOJ01J2Opj6Jf-o-18">
          <mxGeometry relative="1" as="geometry">
            <Array as="points">
              <mxPoint x="1850" y="210" />
              <mxPoint x="1850" y="159" />
            </Array>
          </mxGeometry>
        </mxCell>
        <mxCell id="LMC3JeOJ01J2Opj6Jf-o-21" value="DataIn" style="edgeLabel;html=1;align=center;verticalAlign=middle;resizable=0;points=[];" connectable="0" vertex="1" parent="LMC3JeOJ01J2Opj6Jf-o-20">
          <mxGeometry x="0.5946" relative="1" as="geometry">
            <mxPoint as="offset" />
          </mxGeometry>
        </mxCell>
        <mxCell id="LMC3JeOJ01J2Opj6Jf-o-30" value="" style="group" connectable="0" vertex="1" parent="1">
          <mxGeometry x="1900" y="65" width="160" height="150" as="geometry" />
        </mxCell>
        <mxCell id="LMC3JeOJ01J2Opj6Jf-o-18" value="&lt;div&gt;Data&lt;/div&gt;&lt;div&gt;memory&lt;br&gt;&lt;/div&gt;" style="rounded=0;whiteSpace=wrap;html=1;" vertex="1" parent="LMC3JeOJ01J2Opj6Jf-o-30">
          <mxGeometry width="160" height="150" as="geometry" />
        </mxCell>
        <mxCell id="LMC3JeOJ01J2Opj6Jf-o-27" value="" style="rounded=0;whiteSpace=wrap;html=1;" vertex="1" parent="LMC3JeOJ01J2Opj6Jf-o-30">
          <mxGeometry y="15" width="30" height="100" as="geometry" />
        </mxCell>
        <mxCell id="LMC3JeOJ01J2Opj6Jf-o-28" value="" style="triangle;whiteSpace=wrap;html=1;rotation=-90;" vertex="1" parent="LMC3JeOJ01J2Opj6Jf-o-30">
          <mxGeometry x="10" y="100" width="10" height="20" as="geometry" />
        </mxCell>
        <mxCell id="LMC3JeOJ01J2Opj6Jf-o-40" style="edgeStyle=orthogonalEdgeStyle;rounded=0;orthogonalLoop=1;jettySize=auto;html=1;entryX=0.75;entryY=1;entryDx=0;entryDy=0;" edge="1" parent="1" source="LMC3JeOJ01J2Opj6Jf-o-31" target="LMC3JeOJ01J2Opj6Jf-o-39">
          <mxGeometry relative="1" as="geometry">
            <Array as="points">
              <mxPoint x="2215" y="140" />
              <mxPoint x="2215" y="100" />
            </Array>
          </mxGeometry>
        </mxCell>
        <mxCell id="LMC3JeOJ01J2Opj6Jf-o-107" value="mem" style="edgeLabel;html=1;align=center;verticalAlign=middle;resizable=0;points=[];" connectable="0" vertex="1" parent="LMC3JeOJ01J2Opj6Jf-o-40">
          <mxGeometry x="0.6963" y="1" relative="1" as="geometry">
            <mxPoint as="offset" />
          </mxGeometry>
        </mxCell>
        <mxCell id="LMC3JeOJ01J2Opj6Jf-o-43" style="edgeStyle=orthogonalEdgeStyle;rounded=0;orthogonalLoop=1;jettySize=auto;html=1;entryX=0.5;entryY=1;entryDx=0;entryDy=0;" edge="1" parent="1" source="LMC3JeOJ01J2Opj6Jf-o-31" target="LMC3JeOJ01J2Opj6Jf-o-39">
          <mxGeometry relative="1" as="geometry">
            <Array as="points">
              <mxPoint x="2215" y="20" />
              <mxPoint x="2215" y="70" />
            </Array>
          </mxGeometry>
        </mxCell>
        <mxCell id="LMC3JeOJ01J2Opj6Jf-o-106" value="alu" style="edgeLabel;html=1;align=center;verticalAlign=middle;resizable=0;points=[];" connectable="0" vertex="1" parent="LMC3JeOJ01J2Opj6Jf-o-43">
          <mxGeometry x="0.7062" y="-1" relative="1" as="geometry">
            <mxPoint as="offset" />
          </mxGeometry>
        </mxCell>
        <mxCell id="LMC3JeOJ01J2Opj6Jf-o-53" style="edgeStyle=orthogonalEdgeStyle;rounded=0;orthogonalLoop=1;jettySize=auto;html=1;entryX=0.25;entryY=0;entryDx=0;entryDy=0;" edge="1" parent="1" source="LMC3JeOJ01J2Opj6Jf-o-31" target="LMC3JeOJ01J2Opj6Jf-o-49">
          <mxGeometry relative="1" as="geometry">
            <Array as="points">
              <mxPoint x="2170" y="-60" />
              <mxPoint x="2170" y="-60" />
            </Array>
          </mxGeometry>
        </mxCell>
        <mxCell id="LMC3JeOJ01J2Opj6Jf-o-31" value="MEM/WB" style="rounded=0;whiteSpace=wrap;html=1;" vertex="1" parent="1">
          <mxGeometry x="2110" y="-200" width="60" height="520" as="geometry" />
        </mxCell>
        <mxCell id="LMC3JeOJ01J2Opj6Jf-o-32" value="" style="triangle;whiteSpace=wrap;html=1;rotation=-90;" vertex="1" parent="1">
          <mxGeometry x="2130" y="285" width="20" height="50" as="geometry" />
        </mxCell>
        <mxCell id="LMC3JeOJ01J2Opj6Jf-o-33" style="edgeStyle=orthogonalEdgeStyle;rounded=0;orthogonalLoop=1;jettySize=auto;html=1;entryX=-0.042;entryY=0.655;entryDx=0;entryDy=0;entryPerimeter=0;" edge="1" parent="1" source="LMC3JeOJ01J2Opj6Jf-o-18" target="LMC3JeOJ01J2Opj6Jf-o-31">
          <mxGeometry relative="1" as="geometry" />
        </mxCell>
        <mxCell id="LMC3JeOJ01J2Opj6Jf-o-34" value="DataOut" style="edgeLabel;html=1;align=center;verticalAlign=middle;resizable=0;points=[];" connectable="0" vertex="1" parent="LMC3JeOJ01J2Opj6Jf-o-33">
          <mxGeometry x="-0.3972" relative="1" as="geometry">
            <mxPoint x="4" y="1" as="offset" />
          </mxGeometry>
        </mxCell>
        <mxCell id="LMC3JeOJ01J2Opj6Jf-o-37" style="edgeStyle=orthogonalEdgeStyle;rounded=0;orthogonalLoop=1;jettySize=auto;html=1;entryX=-0.031;entryY=0.056;entryDx=0;entryDy=0;entryPerimeter=0;" edge="1" parent="1" source="LMC3JeOJ01J2Opj6Jf-o-15" target="LMC3JeOJ01J2Opj6Jf-o-31">
          <mxGeometry relative="1" as="geometry">
            <Array as="points">
              <mxPoint x="1840" y="-171" />
              <mxPoint x="1840" y="-171" />
            </Array>
          </mxGeometry>
        </mxCell>
        <mxCell id="LMC3JeOJ01J2Opj6Jf-o-38" style="edgeStyle=orthogonalEdgeStyle;rounded=0;orthogonalLoop=1;jettySize=auto;html=1;entryX=-0.029;entryY=0.034;entryDx=0;entryDy=0;entryPerimeter=0;" edge="1" parent="1" source="LMC3JeOJ01J2Opj6Jf-o-15" target="LMC3JeOJ01J2Opj6Jf-o-31">
          <mxGeometry relative="1" as="geometry">
            <Array as="points">
              <mxPoint x="1843" y="-182" />
              <mxPoint x="1843" y="-182" />
            </Array>
          </mxGeometry>
        </mxCell>
        <mxCell id="LMC3JeOJ01J2Opj6Jf-o-58" style="edgeStyle=orthogonalEdgeStyle;rounded=0;orthogonalLoop=1;jettySize=auto;html=1;entryX=0;entryY=0.25;entryDx=0;entryDy=0;jumpStyle=arc;" edge="1" parent="1" source="LMC3JeOJ01J2Opj6Jf-o-39" target="Hjs_BTQ6o8FuL1FfB40C-53">
          <mxGeometry relative="1" as="geometry">
            <Array as="points">
              <mxPoint x="2400" y="70" />
              <mxPoint x="2400" y="-230" />
              <mxPoint x="750" y="-230" />
              <mxPoint x="750" y="80" />
            </Array>
          </mxGeometry>
        </mxCell>
        <mxCell id="LMC3JeOJ01J2Opj6Jf-o-39" value="" style="shape=trapezoid;perimeter=trapezoidPerimeter;whiteSpace=wrap;html=1;fixedSize=1;rotation=90;" vertex="1" parent="1">
          <mxGeometry x="2270" y="40" width="120" height="60" as="geometry" />
        </mxCell>
        <mxCell id="LMC3JeOJ01J2Opj6Jf-o-41" value="" style="endArrow=classic;html=1;rounded=0;entryX=-0.052;entryY=0.428;entryDx=0;entryDy=0;entryPerimeter=0;edgeStyle=orthogonalEdgeStyle;jumpStyle=arc;" edge="1" parent="1" target="LMC3JeOJ01J2Opj6Jf-o-31">
          <mxGeometry width="50" height="50" relative="1" as="geometry">
            <mxPoint x="1840" y="80" as="sourcePoint" />
            <mxPoint x="1950" y="120" as="targetPoint" />
            <Array as="points">
              <mxPoint x="1850" y="80" />
              <mxPoint x="1850" y="23" />
            </Array>
          </mxGeometry>
        </mxCell>
        <mxCell id="LMC3JeOJ01J2Opj6Jf-o-44" value="" style="endArrow=classic;html=1;rounded=0;entryX=-0.006;entryY=0.574;entryDx=0;entryDy=0;entryPerimeter=0;jumpStyle=arc;edgeStyle=orthogonalEdgeStyle;" edge="1" parent="1" target="LMC3JeOJ01J2Opj6Jf-o-15">
          <mxGeometry width="50" height="50" relative="1" as="geometry">
            <mxPoint x="1320" y="-10" as="sourcePoint" />
            <mxPoint x="1540" y="80" as="targetPoint" />
            <Array as="points">
              <mxPoint x="1320" y="-62" />
            </Array>
          </mxGeometry>
        </mxCell>
        <mxCell id="LMC3JeOJ01J2Opj6Jf-o-104" value="pc" style="edgeLabel;html=1;align=center;verticalAlign=middle;resizable=0;points=[];" connectable="0" vertex="1" parent="LMC3JeOJ01J2Opj6Jf-o-44">
          <mxGeometry x="0.7893" relative="1" as="geometry">
            <mxPoint y="-2" as="offset" />
          </mxGeometry>
        </mxCell>
        <mxCell id="LMC3JeOJ01J2Opj6Jf-o-48" value="" style="group" connectable="0" vertex="1" parent="1">
          <mxGeometry x="2210" y="-90" width="25" height="40" as="geometry" />
        </mxCell>
        <mxCell id="LMC3JeOJ01J2Opj6Jf-o-49" value="+" style="verticalLabelPosition=middle;verticalAlign=middle;html=1;shape=trapezoid;perimeter=trapezoidPerimeter;whiteSpace=wrap;size=0.23;arcSize=10;flipV=1;labelPosition=center;align=center;rotation=-90;" vertex="1" parent="LMC3JeOJ01J2Opj6Jf-o-48">
          <mxGeometry x="-7.499999999999998" y="7.5" width="40" height="25" as="geometry" />
        </mxCell>
        <mxCell id="LMC3JeOJ01J2Opj6Jf-o-50" value="" style="triangle;whiteSpace=wrap;html=1;strokeColor=#ffffff;" vertex="1" parent="LMC3JeOJ01J2Opj6Jf-o-48">
          <mxGeometry x="1.7763568394002505e-15" y="13.75" width="7" height="12.5" as="geometry" />
        </mxCell>
        <mxCell id="LMC3JeOJ01J2Opj6Jf-o-51" value="" style="endArrow=none;html=1;rounded=0;" edge="1" parent="LMC3JeOJ01J2Opj6Jf-o-48">
          <mxGeometry width="50" height="50" relative="1" as="geometry">
            <mxPoint x="8.000000000000002" y="20" as="sourcePoint" />
            <mxPoint x="1.7763568394002505e-15" y="12" as="targetPoint" />
          </mxGeometry>
        </mxCell>
        <mxCell id="LMC3JeOJ01J2Opj6Jf-o-52" value="" style="endArrow=none;html=1;rounded=0;" edge="1" parent="LMC3JeOJ01J2Opj6Jf-o-48">
          <mxGeometry width="50" height="50" relative="1" as="geometry">
            <mxPoint x="1.7763568394002505e-15" y="27" as="sourcePoint" />
            <mxPoint x="8.000000000000002" y="19" as="targetPoint" />
          </mxGeometry>
        </mxCell>
        <mxCell id="LMC3JeOJ01J2Opj6Jf-o-55" value="" style="endArrow=classic;html=1;rounded=0;entryX=0.861;entryY=1;entryDx=0;entryDy=0;entryPerimeter=0;" edge="1" parent="1" target="LMC3JeOJ01J2Opj6Jf-o-49">
          <mxGeometry width="50" height="50" relative="1" as="geometry">
            <mxPoint x="2190" y="-84" as="sourcePoint" />
            <mxPoint x="2270" y="-60" as="targetPoint" />
          </mxGeometry>
        </mxCell>
        <mxCell id="LMC3JeOJ01J2Opj6Jf-o-56" value="4" style="text;html=1;align=center;verticalAlign=middle;resizable=0;points=[];autosize=1;strokeColor=none;fillColor=none;" vertex="1" parent="1">
          <mxGeometry x="2169" y="-100" width="30" height="30" as="geometry" />
        </mxCell>
        <mxCell id="LMC3JeOJ01J2Opj6Jf-o-57" style="edgeStyle=orthogonalEdgeStyle;rounded=0;orthogonalLoop=1;jettySize=auto;html=1;entryX=0.25;entryY=1;entryDx=0;entryDy=0;" edge="1" parent="1" source="LMC3JeOJ01J2Opj6Jf-o-49" target="LMC3JeOJ01J2Opj6Jf-o-39">
          <mxGeometry relative="1" as="geometry" />
        </mxCell>
        <mxCell id="LMC3JeOJ01J2Opj6Jf-o-105" value="pc" style="edgeLabel;html=1;align=center;verticalAlign=middle;resizable=0;points=[];" connectable="0" vertex="1" parent="LMC3JeOJ01J2Opj6Jf-o-57">
          <mxGeometry x="0.7336" relative="1" as="geometry">
            <mxPoint as="offset" />
          </mxGeometry>
        </mxCell>
        <mxCell id="LMC3JeOJ01J2Opj6Jf-o-59" value="" style="endArrow=classic;html=1;rounded=0;entryX=0.75;entryY=0;entryDx=0;entryDy=0;jumpStyle=arc;edgeStyle=orthogonalEdgeStyle;" edge="1" parent="1" target="wosFcNRlOpJEMxotf_Ig-50">
          <mxGeometry width="50" height="50" relative="1" as="geometry">
            <mxPoint x="1260" y="-230" as="sourcePoint" />
            <mxPoint x="1290" y="90" as="targetPoint" />
            <Array as="points">
              <mxPoint x="1240" y="-230" />
              <mxPoint x="1240" y="70" />
            </Array>
          </mxGeometry>
        </mxCell>
        <mxCell id="LMC3JeOJ01J2Opj6Jf-o-60" value="" style="endArrow=classic;html=1;rounded=0;entryX=0.75;entryY=0;entryDx=0;entryDy=0;jumpStyle=arc;edgeStyle=orthogonalEdgeStyle;" edge="1" parent="1" target="wosFcNRlOpJEMxotf_Ig-51">
          <mxGeometry width="50" height="50" relative="1" as="geometry">
            <mxPoint x="1280" y="-230" as="sourcePoint" />
            <mxPoint x="1370" y="-20" as="targetPoint" />
            <Array as="points">
              <mxPoint x="1280" y="-230" />
              <mxPoint x="1285" y="-230" />
              <mxPoint x="1285" y="130" />
            </Array>
          </mxGeometry>
        </mxCell>
        <mxCell id="LMC3JeOJ01J2Opj6Jf-o-63" value="" style="group" connectable="0" vertex="1" parent="1">
          <mxGeometry x="1775" y="344" width="40" height="20" as="geometry" />
        </mxCell>
        <mxCell id="LMC3JeOJ01J2Opj6Jf-o-61" value="" style="rounded=0;whiteSpace=wrap;html=1;" vertex="1" parent="LMC3JeOJ01J2Opj6Jf-o-63">
          <mxGeometry width="40" height="20" as="geometry" />
        </mxCell>
        <mxCell id="LMC3JeOJ01J2Opj6Jf-o-62" value="" style="triangle;whiteSpace=wrap;html=1;" vertex="1" parent="LMC3JeOJ01J2Opj6Jf-o-63">
          <mxGeometry y="2.5" width="10" height="15" as="geometry" />
        </mxCell>
        <mxCell id="LMC3JeOJ01J2Opj6Jf-o-64" value="" style="endArrow=classic;html=1;rounded=0;entryX=0.5;entryY=0;entryDx=0;entryDy=0;jumpStyle=arc;edgeStyle=orthogonalEdgeStyle;" edge="1" parent="1" target="LMC3JeOJ01J2Opj6Jf-o-61">
          <mxGeometry width="50" height="50" relative="1" as="geometry">
            <mxPoint x="1800" y="80" as="sourcePoint" />
            <mxPoint x="1880" y="170" as="targetPoint" />
            <Array as="points">
              <mxPoint x="1795" y="80" />
            </Array>
          </mxGeometry>
        </mxCell>
        <mxCell id="LMC3JeOJ01J2Opj6Jf-o-66" value="" style="endArrow=none;html=1;rounded=0;entryX=0.5;entryY=1;entryDx=0;entryDy=0;edgeStyle=orthogonalEdgeStyle;" edge="1" parent="1" target="LMC3JeOJ01J2Opj6Jf-o-61">
          <mxGeometry width="50" height="50" relative="1" as="geometry">
            <mxPoint x="1240" y="420" as="sourcePoint" />
            <mxPoint x="1590" y="210" as="targetPoint" />
          </mxGeometry>
        </mxCell>
        <mxCell id="LMC3JeOJ01J2Opj6Jf-o-67" value="" style="endArrow=classic;html=1;rounded=0;entryX=0.5;entryY=0;entryDx=0;entryDy=0;edgeStyle=orthogonalEdgeStyle;jumpStyle=arc;" edge="1" parent="1" target="wosFcNRlOpJEMxotf_Ig-51">
          <mxGeometry width="50" height="50" relative="1" as="geometry">
            <mxPoint x="1270" y="420" as="sourcePoint" />
            <mxPoint x="1330" y="270" as="targetPoint" />
            <Array as="points">
              <mxPoint x="1270" y="140" />
            </Array>
          </mxGeometry>
        </mxCell>
        <mxCell id="LMC3JeOJ01J2Opj6Jf-o-68" value="" style="endArrow=classic;html=1;rounded=0;entryX=0.5;entryY=0;entryDx=0;entryDy=0;edgeStyle=orthogonalEdgeStyle;jumpStyle=arc;" edge="1" parent="1" target="wosFcNRlOpJEMxotf_Ig-50">
          <mxGeometry width="50" height="50" relative="1" as="geometry">
            <mxPoint x="1240" y="420" as="sourcePoint" />
            <mxPoint x="1330" y="240" as="targetPoint" />
            <Array as="points">
              <mxPoint x="1240" y="80" />
            </Array>
          </mxGeometry>
        </mxCell>
        <mxCell id="LMC3JeOJ01J2Opj6Jf-o-69" value="&lt;div&gt;Forwarding&lt;/div&gt;&lt;div&gt;Unit&lt;br&gt;&lt;/div&gt;" style="rounded=0;whiteSpace=wrap;html=1;" vertex="1" parent="1">
          <mxGeometry x="1240" y="480" width="120" height="60" as="geometry" />
        </mxCell>
        <mxCell id="LMC3JeOJ01J2Opj6Jf-o-70" value="" style="triangle;whiteSpace=wrap;html=1;rotation=0;" vertex="1" parent="1">
          <mxGeometry x="1240" y="490" width="20" height="40" as="geometry" />
        </mxCell>
        <mxCell id="LMC3JeOJ01J2Opj6Jf-o-72" value="" style="endArrow=classic;html=1;rounded=0;entryX=-0.011;entryY=0.961;entryDx=0;entryDy=0;entryPerimeter=0;edgeStyle=orthogonalEdgeStyle;" edge="1" parent="1" target="wosFcNRlOpJEMxotf_Ig-10">
          <mxGeometry width="50" height="50" relative="1" as="geometry">
            <mxPoint x="1060" y="380" as="sourcePoint" />
            <mxPoint x="1110" y="300" as="targetPoint" />
            <Array as="points">
              <mxPoint x="1060" y="300" />
            </Array>
          </mxGeometry>
        </mxCell>
        <mxCell id="LMC3JeOJ01J2Opj6Jf-o-73" value="flush" style="edgeLabel;html=1;align=center;verticalAlign=middle;resizable=0;points=[];" connectable="0" vertex="1" parent="LMC3JeOJ01J2Opj6Jf-o-72">
          <mxGeometry x="0.7729" relative="1" as="geometry">
            <mxPoint x="-12" as="offset" />
          </mxGeometry>
        </mxCell>
        <mxCell id="LMC3JeOJ01J2Opj6Jf-o-75" value="" style="endArrow=classic;html=1;rounded=0;entryX=0.011;entryY=0.958;entryDx=0;entryDy=0;entryPerimeter=0;edgeStyle=orthogonalEdgeStyle;" edge="1" parent="1" target="Hjs_BTQ6o8FuL1FfB40C-45">
          <mxGeometry width="50" height="50" relative="1" as="geometry">
            <mxPoint x="440" y="380" as="sourcePoint" />
            <mxPoint x="550" y="310" as="targetPoint" />
            <Array as="points">
              <mxPoint x="440" y="298" />
            </Array>
          </mxGeometry>
        </mxCell>
        <mxCell id="LMC3JeOJ01J2Opj6Jf-o-76" value="flush" style="edgeLabel;html=1;align=center;verticalAlign=middle;resizable=0;points=[];" connectable="0" vertex="1" parent="LMC3JeOJ01J2Opj6Jf-o-75">
          <mxGeometry x="0.7293" y="2" relative="1" as="geometry">
            <mxPoint x="-9" y="1" as="offset" />
          </mxGeometry>
        </mxCell>
        <mxCell id="LMC3JeOJ01J2Opj6Jf-o-78" value="" style="endArrow=classic;html=1;rounded=0;entryX=0.666;entryY=0.039;entryDx=0;entryDy=0;entryPerimeter=0;edgeStyle=orthogonalEdgeStyle;jumpStyle=arc;" edge="1" parent="1" target="LMC3JeOJ01J2Opj6Jf-o-69">
          <mxGeometry width="50" height="50" relative="1" as="geometry">
            <mxPoint x="850" y="210" as="sourcePoint" />
            <mxPoint x="1110" y="350" as="targetPoint" />
            <Array as="points">
              <mxPoint x="850" y="440" />
              <mxPoint x="1320" y="440" />
            </Array>
          </mxGeometry>
        </mxCell>
        <mxCell id="LMC3JeOJ01J2Opj6Jf-o-81" value="rs2" style="edgeLabel;html=1;align=center;verticalAlign=middle;resizable=0;points=[];" connectable="0" vertex="1" parent="LMC3JeOJ01J2Opj6Jf-o-78">
          <mxGeometry x="0.9379" relative="1" as="geometry">
            <mxPoint as="offset" />
          </mxGeometry>
        </mxCell>
        <mxCell id="LMC3JeOJ01J2Opj6Jf-o-79" value="" style="endArrow=classic;html=1;rounded=0;edgeStyle=orthogonalEdgeStyle;jumpStyle=arc;" edge="1" parent="1" target="LMC3JeOJ01J2Opj6Jf-o-69">
          <mxGeometry width="50" height="50" relative="1" as="geometry">
            <mxPoint x="840" y="200" as="sourcePoint" />
            <mxPoint x="1010" y="280" as="targetPoint" />
            <Array as="points">
              <mxPoint x="840" y="450" />
              <mxPoint x="1300" y="450" />
            </Array>
          </mxGeometry>
        </mxCell>
        <mxCell id="LMC3JeOJ01J2Opj6Jf-o-80" value="rs1" style="edgeLabel;html=1;align=center;verticalAlign=middle;resizable=0;points=[];" connectable="0" vertex="1" parent="LMC3JeOJ01J2Opj6Jf-o-79">
          <mxGeometry x="0.9532" relative="1" as="geometry">
            <mxPoint as="offset" />
          </mxGeometry>
        </mxCell>
        <mxCell id="LMC3JeOJ01J2Opj6Jf-o-85" value="" style="endArrow=classic;html=1;rounded=0;entryX=1;entryY=0.25;entryDx=0;entryDy=0;edgeStyle=orthogonalEdgeStyle;jumpStyle=arc;" edge="1" parent="1" target="LMC3JeOJ01J2Opj6Jf-o-69">
          <mxGeometry width="50" height="50" relative="1" as="geometry">
            <mxPoint x="1820" y="-182" as="sourcePoint" />
            <mxPoint x="1830" y="10" as="targetPoint" />
            <Array as="points">
              <mxPoint x="1820" y="495" />
            </Array>
          </mxGeometry>
        </mxCell>
        <mxCell id="LMC3JeOJ01J2Opj6Jf-o-108" value="memRegIdx" style="edgeLabel;html=1;align=center;verticalAlign=middle;resizable=0;points=[];" connectable="0" vertex="1" parent="LMC3JeOJ01J2Opj6Jf-o-85">
          <mxGeometry x="0.9677" relative="1" as="geometry">
            <mxPoint x="25" y="-1" as="offset" />
          </mxGeometry>
        </mxCell>
        <mxCell id="LMC3JeOJ01J2Opj6Jf-o-86" value="" style="endArrow=classic;html=1;rounded=0;entryX=1;entryY=0.5;entryDx=0;entryDy=0;edgeStyle=orthogonalEdgeStyle;jumpStyle=arc;" edge="1" parent="1" target="LMC3JeOJ01J2Opj6Jf-o-69">
          <mxGeometry width="50" height="50" relative="1" as="geometry">
            <mxPoint x="1830" y="-171" as="sourcePoint" />
            <mxPoint x="1860" y="-80" as="targetPoint" />
            <Array as="points">
              <mxPoint x="1830" y="510" />
            </Array>
          </mxGeometry>
        </mxCell>
        <mxCell id="LMC3JeOJ01J2Opj6Jf-o-109" value="memRegWrSrc" style="edgeLabel;html=1;align=center;verticalAlign=middle;resizable=0;points=[];" connectable="0" vertex="1" parent="LMC3JeOJ01J2Opj6Jf-o-86">
          <mxGeometry x="0.9455" relative="1" as="geometry">
            <mxPoint x="18" as="offset" />
          </mxGeometry>
        </mxCell>
        <mxCell id="LMC3JeOJ01J2Opj6Jf-o-87" value="" style="endArrow=classic;html=1;rounded=0;entryX=1;entryY=0.75;entryDx=0;entryDy=0;jumpStyle=arc;edgeStyle=orthogonalEdgeStyle;" edge="1" parent="1" target="LMC3JeOJ01J2Opj6Jf-o-69">
          <mxGeometry width="50" height="50" relative="1" as="geometry">
            <mxPoint x="1840" y="-157" as="sourcePoint" />
            <mxPoint x="1850" y="30" as="targetPoint" />
            <Array as="points">
              <mxPoint x="1840" y="525" />
            </Array>
          </mxGeometry>
        </mxCell>
        <mxCell id="LMC3JeOJ01J2Opj6Jf-o-110" value="memRegWrite" style="edgeLabel;html=1;align=center;verticalAlign=middle;resizable=0;points=[];" connectable="0" vertex="1" parent="LMC3JeOJ01J2Opj6Jf-o-87">
          <mxGeometry x="0.926" y="1" relative="1" as="geometry">
            <mxPoint x="4" y="-2" as="offset" />
          </mxGeometry>
        </mxCell>
        <mxCell id="LMC3JeOJ01J2Opj6Jf-o-88" value="" style="endArrow=classic;html=1;rounded=0;entryX=0.817;entryY=0.002;entryDx=0;entryDy=0;edgeStyle=orthogonalEdgeStyle;jumpStyle=arc;entryPerimeter=0;" edge="1" parent="1" target="LMC3JeOJ01J2Opj6Jf-o-69">
          <mxGeometry width="50" height="50" relative="1" as="geometry">
            <mxPoint x="1649" y="-182" as="sourcePoint" />
            <mxPoint x="1460" y="20" as="targetPoint" />
            <Array as="points">
              <mxPoint x="1649" y="-180" />
              <mxPoint x="1650" y="-180" />
              <mxPoint x="1650" y="450" />
              <mxPoint x="1338" y="450" />
              <mxPoint x="1338" y="478" />
            </Array>
          </mxGeometry>
        </mxCell>
        <mxCell id="LMC3JeOJ01J2Opj6Jf-o-111" value="ExRegIdx" style="edgeLabel;html=1;align=center;verticalAlign=middle;resizable=0;points=[];" connectable="0" vertex="1" parent="LMC3JeOJ01J2Opj6Jf-o-88">
          <mxGeometry x="0.8426" relative="1" as="geometry">
            <mxPoint y="-3" as="offset" />
          </mxGeometry>
        </mxCell>
        <mxCell id="LMC3JeOJ01J2Opj6Jf-o-89" value="" style="endArrow=classic;html=1;rounded=0;entryX=1;entryY=0;entryDx=0;entryDy=0;edgeStyle=orthogonalEdgeStyle;jumpStyle=arc;" edge="1" parent="1" target="LMC3JeOJ01J2Opj6Jf-o-69">
          <mxGeometry width="50" height="50" relative="1" as="geometry">
            <mxPoint x="1680" y="-157" as="sourcePoint" />
            <mxPoint x="1480" y="100" as="targetPoint" />
            <Array as="points">
              <mxPoint x="1680" y="460" />
              <mxPoint x="1350" y="460" />
              <mxPoint x="1350" y="470" />
              <mxPoint x="1350" y="470" />
            </Array>
          </mxGeometry>
        </mxCell>
        <mxCell id="LMC3JeOJ01J2Opj6Jf-o-112" value="ExRegWrite" style="edgeLabel;html=1;align=center;verticalAlign=middle;resizable=0;points=[];" connectable="0" vertex="1" parent="LMC3JeOJ01J2Opj6Jf-o-89">
          <mxGeometry x="0.8991" relative="1" as="geometry">
            <mxPoint x="9" as="offset" />
          </mxGeometry>
        </mxCell>
        <mxCell id="LMC3JeOJ01J2Opj6Jf-o-90" value="" style="endArrow=classic;html=1;rounded=0;entryX=0;entryY=0.5;entryDx=0;entryDy=0;jumpStyle=arc;edgeStyle=orthogonalEdgeStyle;" edge="1" parent="1" target="wosFcNRlOpJEMxotf_Ig-50">
          <mxGeometry width="50" height="50" relative="1" as="geometry">
            <mxPoint x="1259" y="480" as="sourcePoint" />
            <mxPoint x="1350" y="310" as="targetPoint" />
            <Array as="points">
              <mxPoint x="1260" y="480" />
              <mxPoint x="1260" y="110" />
              <mxPoint x="1270" y="110" />
            </Array>
          </mxGeometry>
        </mxCell>
        <mxCell id="LMC3JeOJ01J2Opj6Jf-o-114" value="frw1" style="edgeLabel;html=1;align=center;verticalAlign=middle;resizable=0;points=[];" connectable="0" vertex="1" parent="LMC3JeOJ01J2Opj6Jf-o-90">
          <mxGeometry x="-0.9479" y="2" relative="1" as="geometry">
            <mxPoint as="offset" />
          </mxGeometry>
        </mxCell>
        <mxCell id="LMC3JeOJ01J2Opj6Jf-o-91" value="" style="endArrow=classic;html=1;rounded=0;entryX=0;entryY=0.5;entryDx=0;entryDy=0;exitX=0.346;exitY=-0.005;exitDx=0;exitDy=0;exitPerimeter=0;edgeStyle=orthogonalEdgeStyle;jumpStyle=arc;" edge="1" parent="1" source="LMC3JeOJ01J2Opj6Jf-o-69" target="wosFcNRlOpJEMxotf_Ig-51">
          <mxGeometry width="50" height="50" relative="1" as="geometry">
            <mxPoint x="1220" y="470" as="sourcePoint" />
            <mxPoint x="1270" y="420" as="targetPoint" />
            <Array as="points">
              <mxPoint x="1282" y="290" />
              <mxPoint x="1318" y="290" />
            </Array>
          </mxGeometry>
        </mxCell>
        <mxCell id="LMC3JeOJ01J2Opj6Jf-o-115" value="frw2" style="edgeLabel;html=1;align=center;verticalAlign=middle;resizable=0;points=[];" connectable="0" vertex="1" parent="LMC3JeOJ01J2Opj6Jf-o-91">
          <mxGeometry x="-0.9415" relative="1" as="geometry">
            <mxPoint y="2" as="offset" />
          </mxGeometry>
        </mxCell>
        <mxCell id="BwT75UxnFj1zUtdwE7wR-1" value="" style="endArrow=classic;html=1;rounded=0;edgeStyle=orthogonalEdgeStyle;jumpStyle=arc;" edge="1" parent="1">
          <mxGeometry width="50" height="50" relative="1" as="geometry">
            <mxPoint x="1886" y="103" as="sourcePoint" />
            <mxPoint x="930" y="620" as="targetPoint" />
            <Array as="points">
              <mxPoint x="1886" y="620" />
            </Array>
          </mxGeometry>
        </mxCell>
        <mxCell id="BwT75UxnFj1zUtdwE7wR-15" value="Addr" style="edgeLabel;html=1;align=center;verticalAlign=middle;resizable=0;points=[];" connectable="0" vertex="1" parent="BwT75UxnFj1zUtdwE7wR-1">
          <mxGeometry x="0.9537" y="1" relative="1" as="geometry">
            <mxPoint as="offset" />
          </mxGeometry>
        </mxCell>
        <mxCell id="BwT75UxnFj1zUtdwE7wR-2" value="" style="endArrow=classic;html=1;rounded=0;edgeStyle=orthogonalEdgeStyle;jumpStyle=arc;" edge="1" parent="1">
          <mxGeometry width="50" height="50" relative="1" as="geometry">
            <mxPoint x="1850" y="210" as="sourcePoint" />
            <mxPoint x="930" y="600" as="targetPoint" />
            <Array as="points">
              <mxPoint x="1850" y="600" />
            </Array>
          </mxGeometry>
        </mxCell>
        <mxCell id="BwT75UxnFj1zUtdwE7wR-16" value="Data" style="edgeLabel;html=1;align=center;verticalAlign=middle;resizable=0;points=[];" connectable="0" vertex="1" parent="BwT75UxnFj1zUtdwE7wR-2">
          <mxGeometry x="0.9595" relative="1" as="geometry">
            <mxPoint x="8" as="offset" />
          </mxGeometry>
        </mxCell>
        <mxCell id="BwT75UxnFj1zUtdwE7wR-22" style="edgeStyle=orthogonalEdgeStyle;rounded=0;orthogonalLoop=1;jettySize=auto;html=1;" edge="1" parent="1" source="BwT75UxnFj1zUtdwE7wR-3">
          <mxGeometry relative="1" as="geometry">
            <mxPoint x="1370" y="850" as="targetPoint" />
          </mxGeometry>
        </mxCell>
        <mxCell id="BwT75UxnFj1zUtdwE7wR-25" value="ledPins" style="edgeLabel;html=1;align=center;verticalAlign=middle;resizable=0;points=[];" connectable="0" vertex="1" parent="BwT75UxnFj1zUtdwE7wR-22">
          <mxGeometry x="0.0101" relative="1" as="geometry">
            <mxPoint as="offset" />
          </mxGeometry>
        </mxCell>
        <mxCell id="BwT75UxnFj1zUtdwE7wR-3" value="&lt;div&gt;LedReg&lt;/div&gt;&lt;div&gt;0x4000 0000&lt;br&gt;&lt;/div&gt;" style="rounded=0;whiteSpace=wrap;html=1;" vertex="1" parent="1">
          <mxGeometry x="1310" y="660" width="120" height="60" as="geometry" />
        </mxCell>
        <mxCell id="BwT75UxnFj1zUtdwE7wR-6" style="edgeStyle=orthogonalEdgeStyle;rounded=0;orthogonalLoop=1;jettySize=auto;html=1;entryX=0.5;entryY=0;entryDx=0;entryDy=0;" edge="1" parent="1" source="BwT75UxnFj1zUtdwE7wR-4" target="BwT75UxnFj1zUtdwE7wR-5">
          <mxGeometry relative="1" as="geometry" />
        </mxCell>
        <mxCell id="BwT75UxnFj1zUtdwE7wR-4" value="&lt;div&gt;SevenSegReg&lt;/div&gt;0x4000 0020 " style="rounded=0;whiteSpace=wrap;html=1;" vertex="1" parent="1">
          <mxGeometry x="1150" y="660" width="120" height="60" as="geometry" />
        </mxCell>
        <mxCell id="BwT75UxnFj1zUtdwE7wR-21" style="edgeStyle=orthogonalEdgeStyle;rounded=0;orthogonalLoop=1;jettySize=auto;html=1;" edge="1" parent="1" source="BwT75UxnFj1zUtdwE7wR-5">
          <mxGeometry relative="1" as="geometry">
            <mxPoint x="1210" y="850" as="targetPoint" />
          </mxGeometry>
        </mxCell>
        <mxCell id="BwT75UxnFj1zUtdwE7wR-24" value="sevenSegPins" style="edgeLabel;html=1;align=center;verticalAlign=middle;resizable=0;points=[];" connectable="0" vertex="1" parent="BwT75UxnFj1zUtdwE7wR-21">
          <mxGeometry x="-0.2311" relative="1" as="geometry">
            <mxPoint as="offset" />
          </mxGeometry>
        </mxCell>
        <mxCell id="BwT75UxnFj1zUtdwE7wR-5" value="SevenSegDecoder" style="rounded=0;whiteSpace=wrap;html=1;" vertex="1" parent="1">
          <mxGeometry x="1150" y="760" width="120" height="60" as="geometry" />
        </mxCell>
        <mxCell id="BwT75UxnFj1zUtdwE7wR-20" style="edgeStyle=orthogonalEdgeStyle;rounded=0;orthogonalLoop=1;jettySize=auto;html=1;" edge="1" parent="1" source="BwT75UxnFj1zUtdwE7wR-7">
          <mxGeometry relative="1" as="geometry">
            <mxPoint x="1050" y="850" as="targetPoint" />
          </mxGeometry>
        </mxCell>
        <mxCell id="BwT75UxnFj1zUtdwE7wR-23" value="lcdPins" style="edgeLabel;html=1;align=center;verticalAlign=middle;resizable=0;points=[];" connectable="0" vertex="1" parent="BwT75UxnFj1zUtdwE7wR-20">
          <mxGeometry x="-0.1634" relative="1" as="geometry">
            <mxPoint as="offset" />
          </mxGeometry>
        </mxCell>
        <mxCell id="BwT75UxnFj1zUtdwE7wR-7" value="&lt;div&gt;LcdReg&lt;/div&gt;&lt;div&gt;0x5000 0000&lt;br&gt;&lt;/div&gt;" style="rounded=0;whiteSpace=wrap;html=1;" vertex="1" parent="1">
          <mxGeometry x="990" y="660" width="120" height="60" as="geometry" />
        </mxCell>
        <mxCell id="BwT75UxnFj1zUtdwE7wR-8" value="" style="endArrow=classic;html=1;rounded=0;entryX=0.25;entryY=0;entryDx=0;entryDy=0;jumpStyle=arc;" edge="1" parent="1" target="BwT75UxnFj1zUtdwE7wR-3">
          <mxGeometry width="50" height="50" relative="1" as="geometry">
            <mxPoint x="1340" y="600" as="sourcePoint" />
            <mxPoint x="1290" y="670" as="targetPoint" />
          </mxGeometry>
        </mxCell>
        <mxCell id="BwT75UxnFj1zUtdwE7wR-10" value="" style="endArrow=classic;html=1;rounded=0;entryX=0.75;entryY=0;entryDx=0;entryDy=0;" edge="1" parent="1" target="BwT75UxnFj1zUtdwE7wR-3">
          <mxGeometry width="50" height="50" relative="1" as="geometry">
            <mxPoint x="1400" y="620" as="sourcePoint" />
            <mxPoint x="1290" y="670" as="targetPoint" />
          </mxGeometry>
        </mxCell>
        <mxCell id="BwT75UxnFj1zUtdwE7wR-11" value="" style="endArrow=classic;html=1;rounded=0;entryX=0.25;entryY=0;entryDx=0;entryDy=0;jumpStyle=arc;" edge="1" parent="1" target="BwT75UxnFj1zUtdwE7wR-4">
          <mxGeometry width="50" height="50" relative="1" as="geometry">
            <mxPoint x="1180" y="600" as="sourcePoint" />
            <mxPoint x="1210" y="670" as="targetPoint" />
          </mxGeometry>
        </mxCell>
        <mxCell id="BwT75UxnFj1zUtdwE7wR-12" value="" style="endArrow=classic;html=1;rounded=0;entryX=0.75;entryY=0;entryDx=0;entryDy=0;" edge="1" parent="1" target="BwT75UxnFj1zUtdwE7wR-4">
          <mxGeometry width="50" height="50" relative="1" as="geometry">
            <mxPoint x="1240" y="620" as="sourcePoint" />
            <mxPoint x="1210" y="670" as="targetPoint" />
          </mxGeometry>
        </mxCell>
        <mxCell id="BwT75UxnFj1zUtdwE7wR-13" value="" style="endArrow=classic;html=1;rounded=0;entryX=0.25;entryY=0;entryDx=0;entryDy=0;jumpStyle=arc;" edge="1" parent="1" target="BwT75UxnFj1zUtdwE7wR-7">
          <mxGeometry width="50" height="50" relative="1" as="geometry">
            <mxPoint x="1020" y="600" as="sourcePoint" />
            <mxPoint x="1210" y="670" as="targetPoint" />
          </mxGeometry>
        </mxCell>
        <mxCell id="BwT75UxnFj1zUtdwE7wR-14" value="" style="endArrow=classic;html=1;rounded=0;entryX=0.75;entryY=0;entryDx=0;entryDy=0;" edge="1" parent="1" target="BwT75UxnFj1zUtdwE7wR-7">
          <mxGeometry width="50" height="50" relative="1" as="geometry">
            <mxPoint x="1080" y="620" as="sourcePoint" />
            <mxPoint x="1210" y="670" as="targetPoint" />
          </mxGeometry>
        </mxCell>
        <mxCell id="BwT75UxnFj1zUtdwE7wR-18" value="" style="endArrow=none;dashed=1;html=1;dashPattern=1 3;strokeWidth=2;rounded=0;edgeStyle=orthogonalEdgeStyle;" edge="1" parent="1">
          <mxGeometry width="50" height="50" relative="1" as="geometry">
            <mxPoint x="40" y="-242.35294117647058" as="sourcePoint" />
            <mxPoint x="2440" y="850" as="targetPoint" />
            <Array as="points">
              <mxPoint x="40" y="850" />
            </Array>
          </mxGeometry>
        </mxCell>
        <mxCell id="BwT75UxnFj1zUtdwE7wR-19" value="" style="endArrow=none;dashed=1;html=1;dashPattern=1 3;strokeWidth=2;rounded=0;edgeStyle=orthogonalEdgeStyle;" edge="1" parent="1">
          <mxGeometry width="50" height="50" relative="1" as="geometry">
            <mxPoint x="2440" y="850" as="sourcePoint" />
            <mxPoint x="37.64705882352941" y="-240" as="targetPoint" />
            <Array as="points">
              <mxPoint x="2450" y="851" />
              <mxPoint x="2450" y="-240" />
            </Array>
          </mxGeometry>
        </mxCell>
        <mxCell id="BwT75UxnFj1zUtdwE7wR-26" value="" style="triangle;whiteSpace=wrap;html=1;" vertex="1" parent="1">
          <mxGeometry x="990" y="670" width="20" height="40" as="geometry" />
        </mxCell>
        <mxCell id="BwT75UxnFj1zUtdwE7wR-27" value="" style="triangle;whiteSpace=wrap;html=1;" vertex="1" parent="1">
          <mxGeometry x="1150" y="670" width="20" height="40" as="geometry" />
        </mxCell>
        <mxCell id="BwT75UxnFj1zUtdwE7wR-28" value="" style="triangle;whiteSpace=wrap;html=1;" vertex="1" parent="1">
          <mxGeometry x="1310" y="670" width="20" height="40" as="geometry" />
        </mxCell>
      </root>
    </mxGraphModel>
  </diagram>
</mxfile>
